<svg xmlns="http://www.w3.org/2000/svg" width="60" height="37" viewBox="0 0 60 37">
  <rect id="Rectangle_83" data-name="Rectangle 83" width="60" height="37" rx="4" fill="#085aa9"/>
  <g id="Group_134" data-name="Group 134" transform="translate(-26.384 -10.445)">
    <path id="Path_250" data-name="Path 250" d="M72.2,27.631h3.172V20.263H71.916v1.026l-.652-1.026H68.278v1.306l-.56-1.306h-5.5c-.186,0-.373.093-.56.093s-.28.094-.466.187-.28.093-.467.186v-.466H44.957l-.466,1.212-.466-1.212H40.294v1.306l-.56-1.306H36.749l-1.306,3.171v4.2h2.145l.373-1.026h.747l.373,1.026H55.5V26.7l.652.932h4.571v-.559c.094.093.28.093.373.186s.28.093.374.186a1.178,1.178,0,0,0,.56.094h3.358l.373-1.026h.746l.373,1.026h4.571v-.933Zm5.13,9.329v-6.9H51.674l-.653.933-.652-.933H42.905v7.369h7.463l.652-.932.653.932h4.664V35.84h-.187a4.5,4.5,0,0,0,1.679-.28V37.52h3.359v-.933l.652.933h13.9a7.908,7.908,0,0,0,1.586-.56Z" fill="#fff"/>
    <path id="Path_251" data-name="Path 251" d="M75.74,35.206H73.221v1.026h2.425a1.544,1.544,0,0,0,1.679-1.586,1.3,1.3,0,0,0-1.492-1.4H74.714a.467.467,0,0,1,0-.933H76.86l.466-1.026H74.808a1.526,1.526,0,0,0-1.679,1.493,1.3,1.3,0,0,0,1.492,1.4h1.12a.441.441,0,0,1,.466.467c.094.373-.093.56-.466.56Zm-4.571,0H68.651v1.026h2.425a1.545,1.545,0,0,0,1.679-1.586,1.3,1.3,0,0,0-1.492-1.4H70.144a.467.467,0,1,1,0-.933h2.145l.466-1.026H70.236a1.526,1.526,0,0,0-1.678,1.493,1.3,1.3,0,0,0,1.492,1.4h1.12a.441.441,0,0,1,.466.467.435.435,0,0,1-.466.56ZM67.9,32.221V31.194H63.986v4.944H67.9V35.112h-2.8V34.086h2.705V33.06H65.106v-.932h2.8Zm-6.344,0c.467,0,.653.28.653.56s-.186.559-.653.559h-1.4V32.127l1.4.094Zm-1.4,2.145h.56l1.493,1.772h1.4l-1.679-1.866a1.5,1.5,0,0,0,1.306-1.492,1.544,1.544,0,0,0-1.679-1.587H58.95v4.944h1.119l.093-1.772Zm-2.985-1.493a.589.589,0,0,1-.652.653H55.031V32.221h1.4a.665.665,0,0,1,.746.652Zm-3.264-1.679v4.944h1.119V34.459h1.493A1.641,1.641,0,0,0,58.3,32.781,1.616,1.616,0,0,0,56.618,31.1l-2.705.093Zm-1.679,4.944h1.4l-1.958-2.519,1.958-2.425h-1.4L51.02,32.781l-1.212-1.587h-1.4l1.959,2.425-1.959,2.426h1.4l1.212-1.587Zm-4.2-3.917V31.194H44.118v4.944h3.917V35.112h-2.8V34.086h2.706V33.06H45.237v-.932h2.8ZM70.7,23.452l1.958,2.985h1.4V21.493H72.941v3.265l-.28-.466-1.772-2.8H69.4v4.944h1.119V23.079Zm-4.851-.094.373-1.026.373,1.026.466,1.12H65.386Zm1.958,3.079h1.213l-2.145-4.944H65.386L63.24,26.437h1.213l.466-1.026h2.425Zm-5.223,0h0l.466-1.026h-.28a1.251,1.251,0,0,1-1.306-1.4v-.094a1.251,1.251,0,0,1,1.306-1.4h1.212V21.493H62.681a2.228,2.228,0,0,0-2.332,2.425v.094a2.161,2.161,0,0,0,2.239,2.425Zm-4.2,0h1.119V21.587H58.39v4.851Zm-2.425-3.918c.466,0,.653.28.653.56s-.187.56-.653.56h-1.4V22.426l1.4.093Zm-1.4,2.145h.56l1.493,1.773h1.4l-1.678-1.866a1.5,1.5,0,0,0,1.306-1.493,1.545,1.545,0,0,0-1.679-1.586H53.353v4.944h1.119l.094-1.773Zm-2.052-2.145V21.493H48.6v4.944h3.918V25.411h-2.8V24.384H52.42V23.359H49.715v-.932h2.8Zm-8.489,3.918H45.05l1.4-4.011v4.011h1.12V21.493H45.7l-1.119,3.359-1.12-3.359H41.6v4.944h1.119V22.426Zm-6.064-3.079.374-1.026.373,1.026.466,1.12H37.495Zm1.959,3.079h1.213l-2.145-4.944h-1.4l-2.145,4.944h1.212l.466-1.026h2.425Z" transform="translate(0 -0.018)" fill="#005ca9"/>
  </g>
</svg>
