<svg xmlns="http://www.w3.org/2000/svg" width="198.865" height="66.397" viewBox="0 0 198.865 66.397">
  <g id="Group_124" data-name="Group 124" transform="translate(1 1)">
    <path id="Path_202" data-name="Path 202" d="M1267.106,1011.62a8.7,8.7,0,0,1-8.7,8.7H1078.943a8.7,8.7,0,0,1-8.7-8.7V964.628a8.7,8.7,0,0,1,8.7-8.7h179.463a8.7,8.7,0,0,1,8.7,8.7Z" transform="translate(-1070.241 -955.926)" fill="none" stroke="#fff" stroke-miterlimit="10" stroke-width="2"/>
    <g id="Group_120" data-name="Group 120" transform="translate(13.206 10.011)">
      <path id="Path_203" data-name="Path 203" d="M1143.368,1032.153a31.9,31.9,0,0,1-2.882,5.383c-1.873,2.85-4.511,6.4-7.781,6.43-2.906.027-3.652-1.891-7.595-1.869s-4.766,1.9-7.673,1.876c-3.27-.03-5.77-3.235-7.642-6.085-5.236-7.97-5.783-17.323-2.554-22.3,2.3-3.534,5.914-5.6,9.319-5.6,3.466,0,5.644,1.9,8.509,1.9,2.78,0,4.474-1.9,8.48-1.9a11.309,11.309,0,0,1,8.524,4.5C1134.581,1018.592,1135.8,1029.293,1143.368,1032.153Z" transform="translate(-1105.237 -999.598)" fill="#fff"/>
      <g id="Group_119" data-name="Group 119" transform="translate(18.328)">
        <path id="Path_204" data-name="Path 204" d="M1160.752,989.661a9.725,9.725,0,0,0,2.16-7.2,10.507,10.507,0,0,0-6.784,3.649,9.029,9.029,0,0,0-2.217,7.027A8.869,8.869,0,0,0,1160.752,989.661Z" transform="translate(-1153.807 -982.457)" fill="#fff"/>
      </g>
    </g>
    <g id="Group_123" data-name="Group 123" transform="translate(59.787 10.106)">
      <g id="Group_121" data-name="Group 121" transform="translate(0 15.426)">
        <path id="Path_205" data-name="Path 205" d="M1236.182,1024.521l-7.5,22.076h3.434l2.239-6.779h7.262l2.3,6.779h3.529l-7.532-22.076Zm1.78,3.63c.253.985.526,2.009.878,3.115l2.021,5.853h-5.752l1.993-5.892C1237.4,1030.272,1237.693,1029.24,1237.961,1028.151Z" transform="translate(-1228.682 -1024.169)" fill="#fff"/>
        <path id="Path_206" data-name="Path 206" d="M1290.112,1039.687a6.249,6.249,0,0,0-5.31,2.547l-.133-2.2h-3.055l.018.281c.09,1.368.128,2.873.128,5.035v17.016h3.34v-7.941a5.864,5.864,0,0,0,4.565,1.962,6.885,6.885,0,0,0,5.061-2.152,9.125,9.125,0,0,0,2.235-6.424,8.885,8.885,0,0,0-1.94-5.866A6.355,6.355,0,0,0,1290.112,1039.687Zm-.832,2.765c2.977,0,4.31,2.758,4.31,5.492,0,3.525-1.7,5.715-4.437,5.715a4.049,4.049,0,0,1-3.935-3.1,4.265,4.265,0,0,1-.118-1.081v-2.686a5.024,5.024,0,0,1,.106-.824c.017-.092.035-.183.048-.271A4.229,4.229,0,0,1,1289.28,1042.452Z" transform="translate(-1261.64 -1033.612)" fill="#fff"/>
        <path id="Path_207" data-name="Path 207" d="M1335.693,1039.687a6.252,6.252,0,0,0-5.31,2.547l-.133-2.2h-3.054l.017.281c.091,1.369.129,2.873.129,5.035v17.016h3.34v-7.941a5.863,5.863,0,0,0,4.564,1.962,6.894,6.894,0,0,0,5.064-2.152,9.137,9.137,0,0,0,2.234-6.424,8.886,8.886,0,0,0-1.941-5.866A6.353,6.353,0,0,0,1335.693,1039.687Zm-.831,2.765c2.976,0,4.309,2.758,4.309,5.492,0,3.525-1.7,5.715-4.436,5.715a4.049,4.049,0,0,1-3.935-3.1,4.262,4.262,0,0,1-.118-1.081v-2.686a4.922,4.922,0,0,1,.106-.827c.017-.09.033-.18.048-.268A4.227,4.227,0,0,1,1334.862,1042.452Z" transform="translate(-1290.021 -1033.612)" fill="#fff"/>
        <path id="Path_208" data-name="Path 208" d="M1393.7,1033.295c-3.117-1.207-4.116-2.157-4.116-3.911,0-1.477,1.173-2.967,3.8-2.967a7.591,7.591,0,0,1,3.921.984l.283.175.943-2.787-.186-.109a9.679,9.679,0,0,0-4.864-1.091c-4.26,0-7.234,2.515-7.234,6.114,0,2.9,1.863,4.932,5.862,6.386,2.835,1.06,3.89,2.145,3.89,4.006,0,2.106-1.628,3.413-4.245,3.413a9.14,9.14,0,0,1-4.814-1.365l-.29-.186-.9,2.852.165.109a11.439,11.439,0,0,0,5.645,1.451c5.74,0,7.776-3.5,7.776-6.5C1399.331,1036.78,1397.7,1034.874,1393.7,1033.295Z" transform="translate(-1326.478 -1023.589)" fill="#fff"/>
        <path id="Path_209" data-name="Path 209" d="M1428.319,1030.54l-3.276,1.028v2.775h-2.4v2.669h2.4v8.177a6.252,6.252,0,0,0,1.156,4.238,4.284,4.284,0,0,0,3.232,1.269,7.87,7.87,0,0,0,2.582-.4l.187-.066-.16-2.674-.321.1a5.026,5.026,0,0,1-1.554.18c-1.294,0-1.847-.819-1.847-2.741v-8.081h4.029v-2.669h-4.029Z" transform="translate(-1349.454 -1027.917)" fill="#fff"/>
        <path id="Path_210" data-name="Path 210" d="M1457.2,1039.687c-4.673,0-7.937,3.488-7.937,8.48,0,4.843,3.158,8.225,7.681,8.225h.031c3.824,0,7.937-2.664,7.937-8.512a8.44,8.44,0,0,0-2.128-5.908A7.433,7.433,0,0,0,1457.2,1039.687Zm-.1,2.637c3,0,4.373,2.929,4.373,5.652,0,3.348-1.867,5.778-4.436,5.778h-.032c-2.533,0-4.372-2.39-4.372-5.682C1452.634,1045.212,1454.016,1042.324,1457.1,1042.324Z" transform="translate(-1366.027 -1033.612)" fill="#fff"/>
        <path id="Path_211" data-name="Path 211" d="M1504.125,1039.842l-.2-.051a3.221,3.221,0,0,0-.831-.1,4.764,4.764,0,0,0-4.187,2.689l-.1-2.337h-3l.019.281c.089,1.322.126,2.806.126,4.81l-.031,10.911h3.34v-8.513a8.623,8.623,0,0,1,.092-1.295c.377-2.044,1.756-3.366,3.514-3.366a8.53,8.53,0,0,1,.9.056l.358.037Z" transform="translate(-1395.01 -1033.612)" fill="#fff"/>
        <path id="Path_212" data-name="Path 212" d="M1525.282,1039.6c-4.446,0-7.552,3.553-7.552,8.64,0,4.9,3.09,8.065,7.872,8.065a12.8,12.8,0,0,0,5.288-1.015l.2-.091-.642-2.489-.279.112a10.347,10.347,0,0,1-4.185.748,4.643,4.643,0,0,1-5-4.843l10.781.033.043-.213a7.418,7.418,0,0,0,.1-1.394C1531.908,1043.672,1530.173,1039.6,1525.282,1039.6Zm-.223,2.541a3.3,3.3,0,0,1,2.452.935,4.754,4.754,0,0,1,1.151,3.109h-7.617C1521.355,1044.26,1522.561,1042.144,1525.06,1042.144Z" transform="translate(-1408.658 -1033.56)" fill="#fff"/>
      </g>
      <g id="Group_122" data-name="Group 122">
        <path id="Path_213" data-name="Path 213" d="M1228.682,984.2a24.339,24.339,0,0,1,3.2-.217,7.15,7.15,0,0,1,4.7,1.287,4.573,4.573,0,0,1,1.654,3.767,5.289,5.289,0,0,1-1.671,4.061,7.751,7.751,0,0,1-5.151,1.5,23.164,23.164,0,0,1-2.739-.125Zm1.516,9.255a10.749,10.749,0,0,0,1.516.062c3.2.015,4.943-1.612,4.943-4.433.017-2.5-1.533-4.031-4.7-4.031a9.521,9.521,0,0,0-1.757.139Z" transform="translate(-1228.682 -983.501)" fill="#fff"/>
        <path id="Path_214" data-name="Path 214" d="M1261.66,999.385a3.766,3.766,0,0,1-4-3.86,3.87,3.87,0,0,1,4.133-3.984,3.736,3.736,0,0,1,4.014,3.844,3.884,3.884,0,0,1-4.133,4Zm.052-1.023a2.67,2.67,0,0,0,2.532-2.93,2.549,2.549,0,1,0-2.55,2.93Z" transform="translate(-1246.728 -988.208)" fill="#fff"/>
        <path id="Path_215" data-name="Path 215" d="M1283.051,991.992l1.12,3.8c.224.837.448,1.628.6,2.4h.052c.189-.76.465-1.566.74-2.387l1.361-3.814h1.275l1.292,3.751c.309.884.551,1.69.74,2.45h.051a20.77,20.77,0,0,1,.638-2.434l1.188-3.767h1.5l-2.687,7.5h-1.378l-1.274-3.581a24.577,24.577,0,0,1-.741-2.48h-.034a20.671,20.671,0,0,1-.758,2.5l-1.343,3.565h-1.378l-2.515-7.5Z" transform="translate(-1261.569 -988.489)" fill="#fff"/>
        <path id="Path_216" data-name="Path 216" d="M1317.5,993.742c0-.791-.017-1.411-.069-2.031h1.344l.086,1.225h.035a3.156,3.156,0,0,1,2.755-1.4,2.854,2.854,0,0,1,2.946,3.193v4.48h-1.515v-4.325c0-1.209-.5-2.232-1.93-2.232a2.163,2.163,0,0,0-2.032,1.4,1.845,1.845,0,0,0-.1.635v4.526H1317.5Z" transform="translate(-1283.94 -988.208)" fill="#fff"/>
        <path id="Path_217" data-name="Path 217" d="M1342.945,982.708h1.516v11.006h-1.516Z" transform="translate(-1299.828 -982.708)" fill="#fff"/>
        <path id="Path_218" data-name="Path 218" d="M1356.027,999.385a3.766,3.766,0,0,1-4-3.86,3.87,3.87,0,0,1,4.134-3.984,3.736,3.736,0,0,1,4.013,3.844,3.884,3.884,0,0,1-4.134,4Zm.051-1.023a2.67,2.67,0,0,0,2.533-2.93,2.549,2.549,0,1,0-2.549,2.93Z" transform="translate(-1305.486 -988.208)" fill="#fff"/>
        <path id="Path_219" data-name="Path 219" d="M1383.485,997.416a11.367,11.367,0,0,0,.121,1.8h-1.361l-.138-.945h-.051a3.206,3.206,0,0,1-2.549,1.116,2.273,2.273,0,0,1-2.549-2.155c0-1.814,1.791-2.806,5.011-2.79v-.155c0-.62-.189-1.752-1.894-1.736a4.349,4.349,0,0,0-2.187.558l-.345-.914a5.87,5.87,0,0,1,2.757-.651c2.566,0,3.186,1.565,3.186,3.069ZM1382,995.385c-1.654-.031-3.531.232-3.531,1.69a1.267,1.267,0,0,0,1.412,1.3,2.1,2.1,0,0,0,2.049-1.256,1.255,1.255,0,0,0,.069-.434Z" transform="translate(-1321.006 -988.208)" fill="#fff"/>
        <path id="Path_220" data-name="Path 220" d="M1406.9,982.708v9.068c0,.666.019,1.426.069,1.938h-1.36l-.069-1.3h-.035a3.12,3.12,0,0,1-2.825,1.473,3.578,3.578,0,0,1-3.583-3.814,3.741,3.741,0,0,1,3.738-4.03,2.867,2.867,0,0,1,2.516,1.132h.034v-4.465Zm-1.515,6.557a2.254,2.254,0,0,0-.069-.589,2.191,2.191,0,0,0-2.187-1.566c-1.568,0-2.5,1.24-2.5,2.884a2.489,2.489,0,0,0,2.464,2.79,2.255,2.255,0,0,0,2.221-1.628,2.109,2.109,0,0,0,.069-.589Z" transform="translate(-1334.79 -982.708)" fill="#fff"/>
        <path id="Path_221" data-name="Path 221" d="M1438.515,999.385a3.766,3.766,0,0,1-4-3.86,3.871,3.871,0,0,1,4.134-3.984,3.736,3.736,0,0,1,4.014,3.844,3.884,3.884,0,0,1-4.133,4Zm.052-1.023a2.669,2.669,0,0,0,2.531-2.93,2.549,2.549,0,1,0-2.549,2.93Z" transform="translate(-1356.847 -988.208)" fill="#fff"/>
        <path id="Path_222" data-name="Path 222" d="M1461.067,993.742c0-.791-.018-1.411-.069-2.031h1.344l.087,1.225h.034a3.157,3.157,0,0,1,2.756-1.4,2.854,2.854,0,0,1,2.946,3.193v4.48h-1.516v-4.325c0-1.209-.5-2.232-1.93-2.232a2.165,2.165,0,0,0-2.032,1.4,1.848,1.848,0,0,0-.1.635v4.526h-1.515Z" transform="translate(-1373.334 -988.208)" fill="#fff"/>
        <path id="Path_223" data-name="Path 223" d="M1496.457,987.228v1.8h2.17v1.038h-2.17v4.046c0,.93.293,1.457,1.137,1.457a3.121,3.121,0,0,0,.879-.093l.069,1.038a4.543,4.543,0,0,1-1.344.186,2.3,2.3,0,0,1-1.637-.574,2.723,2.723,0,0,1-.585-1.969v-4.092h-1.292v-1.038h1.292v-1.38Z" transform="translate(-1393.686 -985.522)" fill="#fff"/>
        <path id="Path_224" data-name="Path 224" d="M1511.305,982.708h1.515v4.682h.035a2.574,2.574,0,0,1,1.086-.961,3.2,3.2,0,0,1,1.55-.387c1.119,0,2.91.62,2.91,3.208v4.464h-1.515v-4.309c0-1.225-.5-2.232-1.93-2.232a2.178,2.178,0,0,0-2.032,1.364,1.5,1.5,0,0,0-.1.651v4.526h-1.515Z" transform="translate(-1404.658 -982.708)" fill="#fff"/>
        <path id="Path_225" data-name="Path 225" d="M1536.507,995.669a2.541,2.541,0,0,0,2.843,2.6,6.319,6.319,0,0,0,2.309-.373l.276.961a7.456,7.456,0,0,1-2.791.481c-2.55,0-4.1-1.535-4.1-3.782a3.82,3.82,0,0,1,3.927-4.062,3.284,3.284,0,0,1,3.428,3.535,3.145,3.145,0,0,1-.051.651Zm4.428-.977a2.013,2.013,0,0,0-2.085-2.217,2.36,2.36,0,0,0-2.325,2.217Z" transform="translate(-1419.438 -988.182)" fill="#fff"/>
      </g>
    </g>
  </g>
</svg>
