<svg xmlns="http://www.w3.org/2000/svg" width="84.356" height="16.654" viewBox="0 0 84.356 16.654">
  <g id="Group_146" data-name="Group 146" transform="translate(-92.507 -253.102)">
    <g id="Group_143" data-name="Group 143" transform="translate(92.507 253.102)">
      <g id="Group_136" data-name="Group 136" transform="translate(1.56 0)">
        <path id="Path_252" data-name="Path 252" d="M101.49,253.1v4.136h1.438v-2.7h13.778v13.778H102.927v-2.583H101.49v4.021h16.654V253.1Z" transform="translate(-101.49 -253.102)" fill="#d10015"/>
      </g>
      <g id="Group_138" data-name="Group 138" transform="translate(7.557 11.26)">
        <g id="Group_137" data-name="Group 137">
          <circle id="Ellipse_1" data-name="Ellipse 1" cx="0.865" cy="0.865" r="0.865" fill="#d10015"/>
        </g>
      </g>
      <g id="Group_140" data-name="Group 140" transform="translate(11.273 11.26)">
        <g id="Group_139" data-name="Group 139">
          <circle id="Ellipse_2" data-name="Ellipse 2" cx="0.865" cy="0.865" r="0.865" fill="#d10015"/>
        </g>
      </g>
      <g id="Group_141" data-name="Group 141" transform="translate(5.06 4.235)">
        <path id="Path_253" data-name="Path 253" d="M129.382,284.026h-5.061a.7.7,0,0,1-.685-.578l-.779-4.573H121.64v-1.39h1.8a.7.7,0,0,1,.685.578l.13.764h5.808a.695.695,0,0,1,.684.818l-.684,3.809A.7.7,0,0,1,129.382,284.026Zm-4.474-1.39H128.8l.435-2.419H124.5Z" transform="translate(-121.64 -277.485)" fill="#d10015"/>
      </g>
      <g id="Group_142" data-name="Group 142" transform="translate(0 5.553)">
        <path id="Path_254" data-name="Path 254" d="M95.776,285.071h-2.73a.623.623,0,0,0,0,1.234h2.73a.623.623,0,0,0,0-1.234Z" transform="translate(-92.507 -285.071)" fill="#fff"/>
        <path id="Path_255" data-name="Path 255" d="M103.459,297.5h-1.988a.619.619,0,0,0,0,1.234h1.988a.619.619,0,0,0,0-1.234Z" transform="translate(-99.446 -295.338)" fill="#fff"/>
        <path id="Path_256" data-name="Path 256" d="M98.677,309.9h-2.09a.624.624,0,0,0,0,1.234h2.09a.624.624,0,0,0,0-1.234Z" transform="translate(-95.439 -305.591)" fill="#fff"/>
      </g>
    </g>
    <g id="Group_144" data-name="Group 144" transform="translate(115.276 255.683)">
      <path id="Path_257" data-name="Path 257" d="M275.115,286.992h-4.828a1.719,1.719,0,0,0,1.739,1.351,2.386,2.386,0,0,0,1.7-.713l1.013,1.026a3.752,3.752,0,0,1-2.877,1.188,3.434,3.434,0,1,1-.05-6.866C274.177,282.977,275.278,284.54,275.115,286.992Zm-1.8-1.138a1.405,1.405,0,0,0-1.488-1.463,1.578,1.578,0,0,0-1.576,1.463Z" transform="translate(-260.575 -280.369)" fill="#fff"/>
      <path id="Path_258" data-name="Path 258" d="M317.686,286.4a3.613,3.613,0,1,1-3.6-3.427A3.341,3.341,0,0,1,317.686,286.4Zm-5.29.025a1.69,1.69,0,1,0,1.688-1.851A1.689,1.689,0,0,0,312.4,286.429Z" transform="translate(-295.379 -280.369)" fill="#fff"/>
      <path id="Path_259" data-name="Path 259" d="M399.166,284.246c-.45,0-.775.15-.775.5,0,1.013,3.552.5,3.54,2.877,0,1.376-1.213,2.1-2.739,2.1a4.7,4.7,0,0,1-2.914-.938l.625-1.3a4.055,4.055,0,0,0,2.339.838c.488,0,.851-.163.851-.525,0-1.076-3.49-.5-3.49-2.864,0-1.388,1.188-2.1,2.651-2.1a5.017,5.017,0,0,1,2.626.751l-.663,1.313A4.551,4.551,0,0,0,399.166,284.246Z" transform="translate(-366.282 -280.25)" fill="#fff"/>
      <path id="Path_260" data-name="Path 260" d="M479.449,286.4a3.613,3.613,0,1,1-3.6-3.427A3.341,3.341,0,0,1,479.449,286.4Zm-5.29.025a1.69,1.69,0,1,0,1.689-1.851A1.689,1.689,0,0,0,474.158,286.429Z" transform="translate(-429.044 -280.369)" fill="#fff"/>
      <path id="Path_261" data-name="Path 261" d="M524.833,286.442a3.086,3.086,0,0,1-3.127,3.4,2.546,2.546,0,0,1-2.164-1.051v3.4h-1.926V283.04h1.926v.988a2.493,2.493,0,0,1,2.126-1.051A3.147,3.147,0,0,1,524.833,286.442Zm-1.951-.063a1.68,1.68,0,1,0-1.664,1.863A1.691,1.691,0,0,0,522.882,286.379Z" transform="translate(-466.545 -280.369)" fill="#fff"/>
      <path id="Path_262" data-name="Path 262" d="M356.139,281.826h1.952v.976a2.436,2.436,0,0,1,2.017-1.1,2.258,2.258,0,0,1,2.338,2.556v4.458h-1.953V284.87c0-.925-.437-1.4-1.182-1.4s-1.22.475-1.22,1.4v3.841h-1.952Z" transform="translate(-333.116 -279.311)" fill="#fff"/>
      <path id="Path_263" data-name="Path 263" d="M432.926,268.648h1.952v3.371a2.436,2.436,0,0,1,2.017-1.1,2.258,2.258,0,0,1,2.338,2.556v4.458h-1.952v-3.841c0-.925-.437-1.4-1.182-1.4s-1.22.475-1.22,1.4v3.841h-1.952Z" transform="translate(-396.565 -268.529)" fill="#fff"/>
      <path id="Path_264" data-name="Path 264" d="M227.691,277.469a2.529,2.529,0,0,1-2.145-1.118v.989h-1.953v-9.377h1.953v3.391a2.644,2.644,0,0,1,2.145-1.028c1.631,0,3.134,1.259,3.134,3.558v.026A3.241,3.241,0,0,1,227.691,277.469Zm-.5-1.657a1.756,1.756,0,0,0,1.683-1.9v-.026a1.69,1.69,0,1,0-3.353,0v.026A1.746,1.746,0,0,0,227.19,275.812Z" transform="translate(-223.593 -267.963)" fill="#fff"/>
    </g>
    <g id="Group_145" data-name="Group 145" transform="translate(174.348 258.101)">
      <path id="Path_265" data-name="Path 265" d="M564.289,282.116v.98h-.271v-.98h-.344v-.234h.959v.234Z" transform="translate(-563.674 -281.881)" fill="#fff"/>
      <path id="Path_266" data-name="Path 266" d="M571.421,282.331l-.328.663h-.162l-.327-.663v.764h-.271v-1.214h.366l.313.667.314-.667h.365V283.1h-.271Z" transform="translate(-569.177 -281.881)" fill="#fff"/>
    </g>
  </g>
</svg>
