<svg xmlns="http://www.w3.org/2000/svg" xmlns:xlink="http://www.w3.org/1999/xlink" width="1200" zoomAndPan="magnify" viewBox="0 0 900 899.99999" height="1200" preserveAspectRatio="xMidYMid meet" version="1.0"><defs><clipPath id="c0eb0dff13"><path d="M 18.574219 355 L 505 355 L 505 881.074219 L 18.574219 881.074219 Z M 18.574219 355 " clip-rule="nonzero"/></clipPath><clipPath id="2b0aeb9e3e"><path d="M 476 18.574219 L 881.074219 18.574219 L 881.074219 397 L 476 397 Z M 476 18.574219 " clip-rule="nonzero"/></clipPath></defs><path fill="#00afa9" d="M 180.230469 167.097656 C 131.734375 167.097656 92.667969 206.164062 92.667969 254.660156 C 92.667969 303.15625 131.734375 342.222656 180.230469 342.222656 C 228.726562 342.222656 267.792969 303.15625 267.792969 254.660156 C 267.792969 206.164062 228.726562 167.097656 180.230469 167.097656 Z M 180.230469 315.28125 C 146.550781 315.28125 119.609375 288.339844 119.609375 254.660156 C 119.609375 220.980469 146.550781 194.039062 180.230469 194.039062 C 213.910156 194.039062 240.851562 220.980469 240.851562 254.660156 C 240.851562 288.339844 213.910156 315.28125 180.230469 315.28125 Z M 180.230469 315.28125 " fill-opacity="1" fill-rule="nonzero"/><g clip-path="url(#c0eb0dff13)"><path fill="#00afa9" d="M 49.558594 600.199219 C 61.007812 605.589844 73.808594 606.9375 85.929688 603.566406 L 85.929688 844.03125 C 85.929688 864.910156 101.421875 881.078125 120.285156 881.078125 L 233.441406 881.078125 C 252.976562 881.078125 274.53125 864.910156 274.53125 844.03125 L 275.203125 458.078125 C 275.203125 450.667969 278.570312 443.933594 282.613281 443.933594 L 475.253906 443.933594 C 484.007812 443.933594 491.417969 440.566406 496.808594 434.503906 C 500.847656 429.789062 504.890625 422.378906 504.214844 408.90625 L 504.214844 384.660156 C 504.214844 368.492188 490.746094 355.695312 474.578125 355.695312 L 107.484375 355.695312 C 56.292969 355.695312 18.574219 395.433594 18.574219 449.320312 L 18.574219 551.703125 C 18.574219 572.582031 30.699219 591.445312 49.558594 600.199219 Z M 107.484375 382.636719 L 473.90625 382.636719 C 475.253906 382.636719 476.601562 383.3125 476.601562 384.660156 L 476.601562 409.582031 C 476.601562 410.253906 476.601562 410.925781 476.601562 410.925781 C 477.273438 414.296875 476.601562 416.316406 476.601562 416.316406 C 476.601562 416.316406 475.925781 416.316406 475.253906 416.316406 L 281.9375 416.316406 C 260.386719 416.316406 247.585938 437.195312 247.585938 457.402344 L 247.585938 844.03125 C 247.585938 848.074219 240.179688 854.136719 233.441406 854.136719 L 193.703125 854.136719 L 193.703125 645.328125 C 193.703125 637.917969 187.640625 631.859375 180.230469 631.859375 C 172.820312 631.859375 166.757812 637.917969 166.757812 645.328125 L 166.757812 854.136719 L 120.285156 854.136719 C 115.566406 854.136719 112.875 848.074219 112.875 844.03125 L 112.875 588.75 L 211.214844 511.960938 C 221.316406 503.878906 224.011719 489.734375 217.949219 478.285156 L 205.152344 454.710938 C 201.109375 447.972656 195.050781 442.585938 186.964844 441.238281 C 178.882812 439.890625 170.800781 441.238281 164.738281 445.953125 L 112.875 485.019531 L 112.875 464.8125 C 112.875 457.402344 106.8125 451.339844 99.402344 451.339844 C 91.992188 451.339844 85.929688 457.402344 85.929688 464.8125 L 85.929688 511.960938 C 85.929688 511.960938 85.929688 511.960938 85.929688 512.636719 C 85.929688 513.308594 85.929688 513.308594 85.929688 513.984375 C 85.929688 514.65625 85.929688 514.65625 85.929688 515.332031 C 85.929688 516.003906 85.929688 516.003906 86.605469 516.675781 C 86.605469 517.351562 86.605469 517.351562 87.277344 518.023438 C 87.277344 518.699219 87.953125 518.699219 87.953125 519.371094 C 87.953125 520.046875 88.625 520.046875 88.625 520.71875 C 88.625 520.71875 89.300781 521.390625 89.300781 521.390625 C 89.300781 522.066406 89.972656 522.066406 89.972656 522.738281 C 89.972656 522.738281 90.644531 523.414062 91.320312 523.414062 C 91.992188 523.414062 91.992188 524.085938 92.667969 524.085938 C 93.339844 524.085938 93.339844 524.761719 94.015625 524.761719 C 94.6875 524.761719 94.6875 525.433594 95.359375 525.433594 C 96.035156 525.433594 96.035156 525.433594 96.707031 526.105469 C 97.382812 526.105469 97.382812 526.105469 98.054688 526.105469 C 98.730469 526.105469 99.402344 526.105469 99.402344 526.105469 C 99.402344 526.105469 100.078125 526.105469 100.078125 526.105469 C 100.75 526.105469 101.421875 526.105469 101.421875 526.105469 C 102.097656 526.105469 102.097656 526.105469 102.769531 526.105469 C 103.445312 526.105469 103.445312 526.105469 104.117188 525.433594 C 104.792969 525.433594 104.792969 525.433594 105.464844 524.761719 C 106.136719 524.761719 106.136719 524.085938 106.8125 524.085938 C 107.484375 524.085938 107.484375 523.414062 108.160156 523.414062 L 181.578125 467.507812 L 195.050781 491.082031 L 89.972656 572.582031 C 81.890625 579.320312 71.113281 580.667969 61.683594 575.953125 C 51.578125 571.238281 45.515625 562.480469 45.515625 551.703125 L 45.515625 449.320312 C 45.515625 417.664062 65.050781 382.636719 107.484375 382.636719 Z M 107.484375 382.636719 " fill-opacity="1" fill-rule="nonzero"/></g><g clip-path="url(#2b0aeb9e3e)"><path fill="#00afa9" d="M 476.601562 174.503906 C 476.601562 242.535156 533.179688 301.808594 616.703125 322.691406 C 612.660156 341.550781 597.167969 361.757812 569.550781 367.820312 C 562.144531 369.167969 557.429688 376.574219 559.449219 383.984375 C 560.121094 386.679688 561.46875 388.699219 562.816406 390.71875 C 564.835938 392.742188 567.53125 394.089844 570.226562 394.761719 C 578.984375 396.109375 587.738281 396.78125 596.496094 396.78125 C 664.527344 396.78125 721.777344 352.328125 737.269531 324.039062 C 822.140625 304.503906 881.414062 243.882812 881.414062 175.179688 C 880.742188 88.289062 789.808594 18.910156 678.671875 18.910156 C 567.53125 18.910156 476.601562 88.289062 476.601562 174.503906 Z M 678.671875 45.855469 C 774.992188 45.855469 853.796875 103.78125 853.796875 174.503906 C 853.796875 232.433594 800.585938 282.949219 724.472656 298.441406 C 719.757812 299.117188 715.714844 303.15625 714.371094 307.871094 C 711 320.667969 673.28125 356.367188 622.765625 366.472656 C 636.234375 351.652344 644.320312 332.121094 644.320312 311.914062 C 644.320312 305.175781 639.605469 299.789062 633.542969 298.441406 C 556.753906 283.625 503.542969 232.433594 503.542969 174.503906 C 503.542969 103.78125 582.351562 45.855469 678.671875 45.855469 Z M 678.671875 45.855469 " fill-opacity="1" fill-rule="nonzero"/></g><path fill="#00afa9" d="M 671.261719 268.804688 C 674.628906 272.847656 680.019531 274.867188 685.40625 274.867188 C 690.792969 274.867188 696.183594 272.847656 699.550781 268.804688 L 762.867188 196.734375 C 766.90625 192.019531 770.277344 187.304688 772.96875 182.589844 C 777.683594 173.160156 780.378906 163.726562 779.707031 154.972656 C 779.03125 125.335938 754.785156 101.085938 725.148438 99.738281 C 709.65625 99.066406 695.507812 106.476562 685.40625 115.230469 C 675.300781 105.800781 661.15625 98.390625 645.664062 99.738281 C 616.027344 101.085938 591.78125 125.335938 591.105469 154.972656 C 590.433594 169.117188 595.820312 182.589844 604.578125 192.691406 Z M 647.011719 126.683594 C 647.011719 126.683594 647.6875 126.683594 647.6875 126.683594 C 658.464844 126.683594 668.566406 135.4375 673.957031 143.519531 C 676.648438 147.5625 680.691406 149.582031 685.40625 149.582031 C 690.121094 149.582031 694.164062 147.5625 696.855469 143.519531 C 702.246094 135.4375 713.023438 126.007812 723.800781 126.683594 C 739.292969 127.355469 752.089844 140.152344 752.761719 155.644531 C 752.761719 159.6875 751.414062 164.402344 748.722656 169.789062 C 747.375 172.484375 745.355469 175.851562 742.660156 178.546875 L 685.40625 243.882812 L 624.785156 175.179688 C 620.070312 170.464844 618.050781 163.054688 618.050781 155.644531 C 618.722656 140.152344 631.519531 127.355469 647.011719 126.683594 Z M 647.011719 126.683594 " fill-opacity="1" fill-rule="nonzero"/></svg>