<svg id="Group_126" data-name="Group 126" xmlns="http://www.w3.org/2000/svg" width="11.858" height="25.526" viewBox="0 0 11.858 25.526">
  <path id="Path_231" data-name="Path 231" d="M586.08,298.394q-.02-.145-.04-.29a3.963,3.963,0,0,1,.255-1.747l.285.246c.631.521.1,1.2.244,1.788-.081,0-.162.007-.243.008Z" transform="translate(-580.54 -285.453)" fill="#fff"/>
  <path id="Path_232" data-name="Path 232" d="M586.9,299.075l-.4.986c-.177-.347-1.135-.692,0-1.041Z" transform="translate(-580.497 -286.778)" fill="#fff"/>
  <path id="Path_233" data-name="Path 233" d="M586.135,300.411l.5.006.245.768c-.272.18-.012.341.018.51l-.264.266a.5.5,0,0,0-.256.5C585.868,301.83,586.224,301.094,586.135,300.411Z" transform="translate(-580.567 -287.47)" fill="#fff"/>
  <path id="Path_234" data-name="Path 234" d="M577.7,287.515v12.341a.322.322,0,0,0,.322.322h4.583a.322.322,0,0,0,.322-.322V287.314h3.323a.321.321,0,0,0,.32-.294l.319-3.779a.321.321,0,0,0-.32-.349H582.93v-2.681a1.138,1.138,0,0,1,1.138-1.138h2.561a.321.321,0,0,0,.321-.321v-3.779a.321.321,0,0,0-.321-.322H582.3a4.6,4.6,0,0,0-4.6,4.6v3.643h-2.291a.321.321,0,0,0-.322.322v3.779a.322.322,0,0,0,.322.322H577.7Z" transform="translate(-575.091 -274.652)" fill="#fff" fill-rule="evenodd"/>
</svg>
