<svg xmlns="http://www.w3.org/2000/svg" xmlns:xlink="http://www.w3.org/1999/xlink" width="198.865" height="66.397" viewBox="0 0 198.865 66.397">
  <defs>
    <clipPath id="clip-path">
      <path id="Path_177" data-name="Path 177" d="M1137.27,786.555l-8.877-5.125-17.122-9.887c-.951-.549-1.9-.217-1.9.931v40.28c0,.86.677,1.231,1.5.754l17.517-10.115,8.877-5.125,8.533-4.926c1-.578.9-1.371.06-1.826S1137.27,786.555,1137.27,786.555Z" transform="translate(-1109.373 -771.285)" fill="none"/>
    </clipPath>
    <linearGradient id="linear-gradient" x1="0.5" x2="0.5" y2="1" gradientUnits="objectBoundingBox">
      <stop offset="0" stop-color="#0067a2"/>
      <stop offset="0.403" stop-color="#3d91a8"/>
      <stop offset="0.805" stop-color="#74b7ae"/>
      <stop offset="1" stop-color="#8ac6b1"/>
    </linearGradient>
    <linearGradient id="linear-gradient-2" y1="0.5" x2="1" y2="0.5" gradientUnits="objectBoundingBox">
      <stop offset="0" stop-color="#50b09b"/>
      <stop offset="1" stop-color="#e9e486"/>
    </linearGradient>
    <linearGradient id="linear-gradient-3" x1="0.5" x2="0.5" y2="1" gradientUnits="objectBoundingBox">
      <stop offset="0" stop-color="#dc1b24"/>
      <stop offset="0.228" stop-color="#c1203b"/>
      <stop offset="0.748" stop-color="#8a2b6c"/>
      <stop offset="1" stop-color="#753080"/>
    </linearGradient>
    <linearGradient id="linear-gradient-4" x1="0.5" x2="0.5" y2="1" gradientUnits="objectBoundingBox">
      <stop offset="0" stop-color="#eb7165"/>
      <stop offset="0.003" stop-color="#eb7164"/>
      <stop offset="0.675" stop-color="#f9a85e"/>
      <stop offset="1" stop-color="#ffbe5c"/>
    </linearGradient>
  </defs>
  <g id="Group_118" data-name="Group 118" transform="translate(1 1)">
    <path id="Path_172" data-name="Path 172" d="M1267.106,792.327a8.7,8.7,0,0,1-8.7,8.7H1078.943a8.7,8.7,0,0,1-8.7-8.7V745.335a8.7,8.7,0,0,1,8.7-8.7h179.462a8.7,8.7,0,0,1,8.7,8.7Z" transform="translate(-1070.241 -736.633)" fill="none" stroke="#fff" stroke-miterlimit="10" stroke-width="2"/>
    <g id="PLAY" transform="translate(14.766 13.076)">
      <g id="Group_113" data-name="Group 113" clip-path="url(#clip-path)">
        <path id="Path_173" data-name="Path 173" d="M1109.373,769.488V813.1l21.99-21.8Z" transform="translate(-1109.373 -770.166)" fill="url(#linear-gradient)"/>
        <path id="Path_174" data-name="Path 174" d="M1137.27,785.174l-8.877-5.125-19.02-10.982v.159l21.99,21.805Z" transform="translate(-1109.373 -769.904)" fill="url(#linear-gradient-2)"/>
        <path id="Path_175" data-name="Path 175" d="M1109.373,849.077v.159l19.02-10.982,8.876-5.125-5.906-5.856Z" transform="translate(-1109.373 -806.146)" fill="url(#linear-gradient-3)"/>
        <path id="Path_176" data-name="Path 176" d="M1173.555,811.752l-5.906,5.857,5.906,5.856,10.145-5.856Z" transform="translate(-1145.659 -796.482)" fill="url(#linear-gradient-4)"/>
      </g>
    </g>
    <g id="Group_114" data-name="Group 114" transform="translate(147.309 24.49)">
      <path id="Path_178" data-name="Path 178" d="M1466.522,828.172a5.488,5.488,0,0,1-2.262-.457,4.266,4.266,0,0,1-1.719-1.406h-.138a17.035,17.035,0,0,1,.138,2.106v5.219h-1.92V815.259h1.561l.266,1.736h.093a4.466,4.466,0,0,1,1.725-1.5,5.243,5.243,0,0,1,2.256-.463,4.687,4.687,0,0,1,3.894,1.724,9.184,9.184,0,0,1-.022,9.692A4.7,4.7,0,0,1,1466.522,828.172Zm-.278-11.514a3.4,3.4,0,0,0-2.812,1.076,5.543,5.543,0,0,0-.892,3.426v.428a6.346,6.346,0,0,0,.892,3.825,3.39,3.39,0,0,0,2.858,1.151,2.973,2.973,0,0,0,2.576-1.33,6.315,6.315,0,0,0,.931-3.669,6.079,6.079,0,0,0-.931-3.639A3.066,3.066,0,0,0,1466.245,816.659Z" transform="translate(-1460.622 -809.935)" fill="#f9f9f9"/>
      <path id="Path_179" data-name="Path 179" d="M1498.83,819.539h-1.921V801.534h1.921Z" transform="translate(-1483.216 -801.534)" fill="#f9f9f9"/>
      <path id="Path_180" data-name="Path 180" d="M1516.829,827.979l-.382-1.805h-.092a5.322,5.322,0,0,1-1.892,1.614,5.754,5.754,0,0,1-2.354.422,4.237,4.237,0,0,1-2.957-.972,3.545,3.545,0,0,1-1.071-2.766q0-3.841,6.144-4.027l2.153-.069v-.787a3.212,3.212,0,0,0-.643-2.2,2.64,2.64,0,0,0-2.054-.712,8.368,8.368,0,0,0-3.587.972l-.59-1.469a9.027,9.027,0,0,1,2.055-.8,8.892,8.892,0,0,1,2.239-.289,4.833,4.833,0,0,1,3.362,1.006,4.206,4.206,0,0,1,1.093,3.229v8.655Zm-4.339-1.354a3.9,3.9,0,0,0,2.818-.983,3.641,3.641,0,0,0,1.025-2.755v-1.145l-1.922.08a6.987,6.987,0,0,0-3.3.712,2.147,2.147,0,0,0-1.012,1.961,1.976,1.976,0,0,0,.631,1.585A2.614,2.614,0,0,0,1512.49,826.626Z" transform="translate(-1490.172 -809.974)" fill="#f9f9f9"/>
      <path id="Path_181" data-name="Path 181" d="M1537.992,815.641h2.059l2.777,7.233a27.687,27.687,0,0,1,1.135,3.576h.092q.151-.591.63-2.02t3.142-8.788h2.06l-5.451,14.441a7.206,7.206,0,0,1-1.892,3.038,4.025,4.025,0,0,1-2.655.9,7.764,7.764,0,0,1-1.737-.2v-1.539a6.705,6.705,0,0,0,1.424.139,2.934,2.934,0,0,0,2.824-2.222l.706-1.8Z" transform="translate(-1508.797 -810.318)" fill="#f9f9f9"/>
    </g>
    <g id="Group_116" data-name="Group 116" transform="translate(59.741 23.072)">
      <path id="Path_182" data-name="Path 182" d="M1365.635,817.187a4.472,4.472,0,0,1,1.883,3.582c0,1.962-1.114,2.892-2.229,3.766a1.866,1.866,0,0,0-.743,1.3,1.456,1.456,0,0,0,.691,1.14l.955.741c1.167.982,2.227,1.884,2.227,3.715,0,2.493-2.414,5.013-6.976,5.013-3.847,0-5.7-1.83-5.7-3.794a3.818,3.818,0,0,1,2.042-3.236,11.435,11.435,0,0,1,5.066-1.221,2.777,2.777,0,0,1-.8-1.8,2.389,2.389,0,0,1,.266-1.036c-.293.027-.584.053-.85.053a4.194,4.194,0,0,1-4.4-4.164,4.771,4.771,0,0,1,1.7-3.555,7.233,7.233,0,0,1,4.75-1.46h5.463l-1.7.955Zm-1.884,11.779a4.086,4.086,0,0,0-.609-.028,10.606,10.606,0,0,0-2.786.427,2.979,2.979,0,0,0-2.281,2.731c0,1.883,1.831,3.238,4.67,3.238,2.545,0,3.9-1.223,3.9-2.866C1366.643,831.112,1365.767,830.4,1363.751,828.966Zm.77-5.041a2.683,2.683,0,0,0,.661-1.937c0-1.91-1.14-4.881-3.341-4.881a2.478,2.478,0,0,0-1.857.876,3.065,3.065,0,0,0-.584,1.963c0,1.777,1.035,4.722,3.317,4.722A2.716,2.716,0,0,0,1364.521,823.925Z" transform="translate(-1307.749 -809.268)" fill="#f9f9f9"/>
      <path id="Path_183" data-name="Path 183" d="M1327.043,827.92a6.25,6.25,0,0,1-6.462-6.251,6.563,6.563,0,0,1,6.861-6.435,6.192,6.192,0,0,1,6.328,6.25A6.471,6.471,0,0,1,1327.043,827.92Zm3.31-2.144a4.789,4.789,0,0,0,.8-2.941c0-2.331-1.112-6.78-4.4-6.78a3.689,3.689,0,0,0-2.383.9,4.007,4.007,0,0,0-1.22,3.232c0,2.62,1.3,6.936,4.5,6.936A3.383,3.383,0,0,0,1330.352,825.775Z" transform="translate(-1285.857 -808.646)" fill="#f9f9f9"/>
      <path id="Path_184" data-name="Path 184" d="M1289,827.92a6.25,6.25,0,0,1-6.463-6.251,6.563,6.563,0,0,1,6.86-6.435,6.192,6.192,0,0,1,6.329,6.25A6.471,6.471,0,0,1,1289,827.92Zm3.311-2.144a4.8,4.8,0,0,0,.795-2.941c0-2.331-1.113-6.78-4.4-6.78a3.689,3.689,0,0,0-2.383.9,4.007,4.007,0,0,0-1.218,3.232c0,2.62,1.3,6.936,4.5,6.936A3.386,3.386,0,0,0,1292.311,825.775Z" transform="translate(-1262.17 -808.646)" fill="#f9f9f9"/>
      <path id="Path_185" data-name="Path 185" d="M1246.905,817.614l-3.808.879a28.248,28.248,0,0,1-4.393.451c-7.35,0-10.145-5.406-10.145-9.639,0-5.165,3.966-9.956,10.757-9.956a15.326,15.326,0,0,1,4.073.559,10.382,10.382,0,0,1,3.515,1.651l-2.211,2.1-.932.212.666-1.065a7.609,7.609,0,0,0-5.7-2.5c-4.207,0-7.376,3.2-7.376,7.856,0,5,3.622,9.717,9.425,9.717a7.927,7.927,0,0,0,3.382-.666v-4.286l-4.02.213,2.129-1.146h5.645l-.692.665a.622.622,0,0,0-.267.426c-.028.24-.053,1.013-.053,1.279Z" transform="translate(-1228.56 -798.755)" fill="#f9f9f9"/>
      <path id="Path_186" data-name="Path 186" d="M1394.931,815.868c-.879-.08-1.063-.239-1.063-1.279v-15.07c.005-.058.009-.116.014-.172.108-.932.374-1.091,1.2-1.571h-3.809l-2,.959h2.036v16.441c0,.531-.105.612-.718,1.41h4.714l.985-.584C1395.837,815.947,1395.384,815.921,1394.931,815.868Z" transform="translate(-1328.63 -797.776)" fill="#f9f9f9"/>
      <path id="Path_187" data-name="Path 187" d="M1417.051,827c-.29.159-.581.345-.871.476a6.161,6.161,0,0,1-2.567.5,5.65,5.65,0,0,1-3.517-1.032,6.845,6.845,0,0,1-2.7-5.58,5.993,5.993,0,0,1,6.055-6.108,5.14,5.14,0,0,1,2.725.741,4.376,4.376,0,0,1,1.849,2.616l-6.213,2.513-2.036.159c.66,3.358,2.934,5.313,5.447,5.313a6.833,6.833,0,0,0,3.226-.924Zm-2.484-7.881c.5-.185.766-.343.766-.713a2.624,2.624,0,0,0-2.618-2.274c-1.059,0-3.041.82-3.041,3.675,0,.449.053.925.08,1.4Z" transform="translate(-1339.915 -808.66)" fill="#f9f9f9"/>
      <g id="Group_115" data-name="Group 115" transform="translate(78.899 6.596)">
        <path id="Path_188" data-name="Path 188" d="M1438.438,815.437v1.745h-.212v-1.745h-.577v-.181h1.366v.181Z" transform="translate(-1437.649 -815.256)" fill="#f9f9f9"/>
        <path id="Path_189" data-name="Path 189" d="M1443.644,817.182v-1.761h-.01l-.538,1.761h-.166l-.542-1.761h-.007v1.761h-.192v-1.926h.33l.49,1.557h.007l.483-1.557h.335v1.926Z" transform="translate(-1440.476 -815.256)" fill="#f9f9f9"/>
      </g>
    </g>
    <g id="Group_117" data-name="Group 117" transform="translate(59.787 12.973)">
      <path id="Path_190" data-name="Path 190" d="M1233.923,776.725H1232.6a8.723,8.723,0,0,0-.376-1.546h-1.91a7.969,7.969,0,0,0-.389,1.546h-1.245q0-.161.965-2.646a20.74,20.74,0,0,0,.966-2.737h1.563a22.775,22.775,0,0,0,.874,2.7A23.652,23.652,0,0,1,1233.923,776.725Zm-1.911-2.336a23.257,23.257,0,0,1-.707-2.307h-.066q0,.161-.732,2.307Z" transform="translate(-1228.68 -771.218)" fill="#fbfcfc"/>
      <path id="Path_191" data-name="Path 191" d="M1249.381,776.725h-1.021a10.109,10.109,0,0,0-1.137-1.791,9.854,9.854,0,0,1-1.356-2.336h-.066a14.525,14.525,0,0,1,.1,1.637q0,1.021.058,2.489h-1.017q.062-1.282.062-2.816,0-1.51-.062-2.567h1.228a7.771,7.771,0,0,0,1.021,1.749,10.3,10.3,0,0,1,1.249,2.2h.062a15.636,15.636,0,0,1-.1-1.654q0-1.121-.058-2.3h1.034q-.058,1.025-.058,2.567T1249.381,776.725Z" transform="translate(-1238.807 -771.218)" fill="#fbfcfc"/>
      <path id="Path_192" data-name="Path 192" d="M1265.079,773.806a3.052,3.052,0,0,1-.752,2.051,2.629,2.629,0,0,1-2.109.877q-.612,0-1.687-.049.053-1.249.054-2.816,0-1.505-.054-2.568h.723q.178,0,.529-.012t.459-.012a2.787,2.787,0,0,1,2.164.744A2.574,2.574,0,0,1,1265.079,773.806Zm-1.129.178a1.992,1.992,0,0,0-.463-1.338,1.755,1.755,0,0,0-1.414-.544,4.325,4.325,0,0,0-.488.037q.041.827.041,1.728,0,.988.042,1.96a2.731,2.731,0,0,0,.537.054,1.562,1.562,0,0,0,1.317-.552A2.13,2.13,0,0,0,1263.95,773.984Z" transform="translate(-1248.512 -771.177)" fill="#fbfcfc"/>
      <path id="Path_193" data-name="Path 193" d="M1280.036,776.684h-1.224a8.132,8.132,0,0,0-.736-1.807.964.964,0,0,0-.827-.343q-.24,0-.459,0,0,1.063.037,2.146h-1.149q.054-1.249.054-2.816,0-1.505-.054-2.568h.715q.124,0,.519-.012t.73-.012q1.9,0,1.9,1.3a1.456,1.456,0,0,1-1.083,1.435v.062a1.292,1.292,0,0,1,.732.651A14.4,14.4,0,0,1,1280.036,776.684Zm-1.55-3.8q0-.823-1.058-.823a3.6,3.6,0,0,0-.686.058q.045.641.046,1.671.227.008.385.008Q1278.486,773.794,1278.485,772.88Z" transform="translate(-1257.943 -771.177)" fill="#fbfcfc"/>
      <path id="Path_194" data-name="Path 194" d="M1294.248,773.729a2.969,2.969,0,0,1-.777,2.1,2.522,2.522,0,0,1-1.923.835,2.429,2.429,0,0,1-1.828-.767,2.7,2.7,0,0,1-.736-1.949,2.967,2.967,0,0,1,.777-2.1,2.521,2.521,0,0,1,1.923-.835,2.433,2.433,0,0,1,1.828.765A2.7,2.7,0,0,1,1294.248,773.729Zm-1.141.12a2.135,2.135,0,0,0-.442-1.4,1.363,1.363,0,0,0-1.092-.537,1.261,1.261,0,0,0-1.025.541,2.162,2.162,0,0,0-.422,1.369,2.129,2.129,0,0,0,.444,1.4,1.362,1.362,0,0,0,1.089.54,1.26,1.26,0,0,0,1.025-.544A2.16,2.16,0,0,0,1293.107,773.849Z" transform="translate(-1266.229 -771.013)" fill="#fbfcfc"/>
      <path id="Path_195" data-name="Path 195" d="M1307.2,776.725h-1.17q.053-1.282.054-2.816,0-1.51-.054-2.567h1.17q-.054,1.042-.054,2.567Q1307.144,775.468,1307.2,776.725Z" transform="translate(-1276.841 -771.218)" fill="#fbfcfc"/>
      <path id="Path_196" data-name="Path 196" d="M1317.505,773.806a3.051,3.051,0,0,1-.752,2.051,2.629,2.629,0,0,1-2.109.877q-.612,0-1.687-.049.054-1.249.054-2.816,0-1.505-.054-2.568h.724q.178,0,.529-.012t.459-.012a2.787,2.787,0,0,1,2.164.744A2.575,2.575,0,0,1,1317.505,773.806Zm-1.129.178a2,2,0,0,0-.463-1.338,1.756,1.756,0,0,0-1.414-.544,4.329,4.329,0,0,0-.488.037q.041.827.042,1.728,0,.988.042,1.96a2.73,2.73,0,0,0,.537.054,1.562,1.562,0,0,0,1.317-.552A2.13,2.13,0,0,0,1316.377,773.984Z" transform="translate(-1281.155 -771.177)" fill="#fbfcfc"/>
      <path id="Path_197" data-name="Path 197" d="M1337.428,776.725H1336.1a8.74,8.74,0,0,0-.377-1.546h-1.911a8,8,0,0,0-.389,1.546h-1.244q0-.161.965-2.646a20.724,20.724,0,0,0,.965-2.737h1.563a22.823,22.823,0,0,0,.875,2.7A23.652,23.652,0,0,1,1337.428,776.725Zm-1.91-2.336a23.4,23.4,0,0,1-.708-2.307h-.066q0,.161-.732,2.307Z" transform="translate(-1293.128 -771.218)" fill="#fbfcfc"/>
      <path id="Path_198" data-name="Path 198" d="M1352.379,772.711a1.612,1.612,0,0,1-.734,1.46,3.265,3.265,0,0,1-1.8.471c-.13,0-.222,0-.277-.008q0,.777.045,2.051h-1.161q.053-1.195.054-2.816,0-1.489-.054-2.568h.719q.153,0,.587-.012t.752-.012a2.367,2.367,0,0,1,1.327.355A1.2,1.2,0,0,1,1352.379,772.711Zm-1.067.227q0-.884-1.174-.885a3.34,3.34,0,0,0-.62.062q.045.782.045,1.77c.069.006.149.008.24.008Q1351.312,773.893,1351.312,772.938Z" transform="translate(-1303.256 -771.177)" fill="#fbfcfc"/>
      <path id="Path_199" data-name="Path 199" d="M1365.52,772.711a1.612,1.612,0,0,1-.734,1.46,3.268,3.268,0,0,1-1.8.471c-.13,0-.222,0-.277-.008q0,.777.046,2.051h-1.162q.054-1.195.054-2.816,0-1.489-.054-2.568h.72q.153,0,.587-.012t.753-.012a2.368,2.368,0,0,1,1.327.355A1.2,1.2,0,0,1,1365.52,772.711Zm-1.067.227q0-.884-1.174-.885a3.347,3.347,0,0,0-.62.062q.046.782.045,1.77c.069.006.149.008.24.008Q1364.453,773.893,1364.453,772.938Z" transform="translate(-1311.438 -771.177)" fill="#fbfcfc"/>
      <path id="Path_200" data-name="Path 200" d="M1384.8,773.729a2.967,2.967,0,0,1-.777,2.1,2.523,2.523,0,0,1-1.923.835,2.429,2.429,0,0,1-1.828-.767,2.7,2.7,0,0,1-.736-1.949,2.967,2.967,0,0,1,.777-2.1,2.522,2.522,0,0,1,1.923-.835,2.433,2.433,0,0,1,1.828.765A2.7,2.7,0,0,1,1384.8,773.729Zm-1.141.12a2.133,2.133,0,0,0-.443-1.4,1.363,1.363,0,0,0-1.091-.537,1.261,1.261,0,0,0-1.026.541,2.161,2.161,0,0,0-.422,1.369,2.127,2.127,0,0,0,.444,1.4,1.362,1.362,0,0,0,1.089.54,1.259,1.259,0,0,0,1.025-.544A2.163,2.163,0,0,0,1383.661,773.849Z" transform="translate(-1322.613 -771.013)" fill="#fbfcfc"/>
      <path id="Path_201" data-name="Path 201" d="M1401.018,776.725H1400a10.077,10.077,0,0,0-1.137-1.791,9.85,9.85,0,0,1-1.356-2.336h-.066a14.614,14.614,0,0,1,.1,1.637q0,1.021.058,2.489h-1.017q.062-1.282.062-2.816,0-1.51-.062-2.567h1.228a7.784,7.784,0,0,0,1.021,1.749,10.266,10.266,0,0,1,1.249,2.2h.062a15.533,15.533,0,0,1-.1-1.654q0-1.121-.058-2.3h1.034q-.058,1.025-.058,2.567T1401.018,776.725Z" transform="translate(-1333.225 -771.218)" fill="#fbfcfc"/>
    </g>
  </g>
</svg>
