<svg id="Group_127" data-name="Group 127" xmlns="http://www.w3.org/2000/svg" width="26.626" height="26.626" viewBox="0 0 26.626 26.626">
  <path id="Path_235" data-name="Path 235" d="M706.605,274H696.02a8.02,8.02,0,0,0-8.02,8.02v10.586a8.02,8.02,0,0,0,8.02,8.02h10.585a8.02,8.02,0,0,0,8.02-8.02V282.02A8.02,8.02,0,0,0,706.605,274Zm5.509,18.606a5.508,5.508,0,0,1-5.509,5.508H696.02a5.508,5.508,0,0,1-5.509-5.508V282.02a5.508,5.508,0,0,1,5.509-5.508h10.585a5.508,5.508,0,0,1,5.509,5.508Z" transform="translate(-688 -274)" fill="#fff"/>
  <path id="Path_236" data-name="Path 236" d="M726.891,283.758a1.565,1.565,0,1,0,1.565,1.565A1.565,1.565,0,0,0,726.891,283.758Z" transform="translate(-706.574 -278.856)" fill="#fff"/>
  <path id="Path_237" data-name="Path 237" d="M708.077,287.753a6.576,6.576,0,1,0,6.575,6.576A6.583,6.583,0,0,0,708.077,287.753Zm0,10.788a4.212,4.212,0,1,1,4.212-4.212A4.217,4.217,0,0,1,708.077,298.541Z" transform="translate(-694.718 -280.844)" fill="#fff"/>
</svg>
