<svg xmlns="http://www.w3.org/2000/svg" width="60" height="37" viewBox="0 0 60 37">
  <rect id="Rectangle_81" data-name="Rectangle 81" width="60" height="37" rx="4" fill="#fff"/>
  <g id="Group_133" data-name="Group 133" transform="translate(-56.773 -125.971)">
    <rect id="Rectangle_82" data-name="Rectangle 82" width="8.568" height="15.398" transform="translate(82.989 133.88)" fill="#57569f"/>
    <path id="Path_247" data-name="Path 247" d="M83.533,141.58a9.774,9.774,0,0,1,3.741-7.7,9.794,9.794,0,1,0,0,15.4,9.775,9.775,0,0,1-3.741-7.7" fill="#c20010"/>
    <path id="Path_248" data-name="Path 248" d="M292.332,141.58a9.793,9.793,0,0,1-15.846,7.7,9.795,9.795,0,0,0,0-15.4,9.793,9.793,0,0,1,15.846,7.7" transform="translate(-189.212)" fill="#0087cc"/>
    <path id="Path_249" data-name="Path 249" d="M156.382,405.844a1.206,1.206,0,0,1,.4.072l-.175.533a.9.9,0,0,0-.353-.065c-.369,0-.555.238-.555.669v1.458h-.565v-2.6h.56v.315a.769.769,0,0,1,.686-.381m-2.092.582h-.924V407.6c0,.26.092.433.377.433a1.046,1.046,0,0,0,.5-.145l.162.484a1.335,1.335,0,0,1-.707.2c-.67,0-.9-.36-.9-.963v-1.186h-.527v-.517h.527v-.788h.571v.788h.924Zm-7.241.555a.67.67,0,0,1,.693-.631.645.645,0,0,1,.658.631Zm1.937.229a1.247,1.247,0,0,0-1.234-1.366,1.366,1.366,0,0,0,.039,2.73,1.578,1.578,0,0,0,1.065-.364l-.277-.419a1.243,1.243,0,0,1-.755.272.721.721,0,0,1-.778-.636h1.929c.005-.072.01-.141.01-.217m2.487-.637a1.658,1.658,0,0,0-.81-.223c-.31,0-.5.114-.5.305,0,.173.2.223.441.255l.266.038c.567.081.908.321.908.777,0,.5-.435.85-1.185.85a1.879,1.879,0,0,1-1.126-.338l.266-.441a1.388,1.388,0,0,0,.865.272c.386,0,.593-.114.593-.315,0-.147-.148-.229-.458-.272l-.266-.038c-.582-.081-.9-.343-.9-.767,0-.517.427-.832,1.084-.832a1.942,1.942,0,0,1,1.06.272Zm6.977-.191a.873.873,0,0,0-.325.06.773.773,0,0,0-.431.437.945.945,0,0,0,0,.678.819.819,0,0,0,.171.266.78.78,0,0,0,.259.171.849.849,0,0,0,.325.062.86.86,0,0,0,.325-.062.771.771,0,0,0,.259-.171.751.751,0,0,0,.174-.266.929.929,0,0,0,0-.678.735.735,0,0,0-.174-.265.8.8,0,0,0-.259-.173.885.885,0,0,0-.325-.06m0-.538a1.46,1.46,0,0,1,.56.106,1.332,1.332,0,0,1,.445.288,1.3,1.3,0,0,1,.3.435,1.457,1.457,0,0,1,0,1.092,1.3,1.3,0,0,1-.3.435,1.337,1.337,0,0,1-.445.289,1.55,1.55,0,0,1-1.12,0,1.325,1.325,0,0,1-.738-.724,1.476,1.476,0,0,1,0-1.092,1.316,1.316,0,0,1,.738-.722,1.452,1.452,0,0,1,.56-.106m-14.7,1.366a.787.787,0,1,1,.788.831.78.78,0,0,1-.788-.831m2.1,0v-1.3h-.565v.315a.991.991,0,0,0-.822-.381,1.368,1.368,0,0,0,0,2.732.994.994,0,0,0,.822-.381v.316h.565Zm-3.187,1.3v-1.632a.968.968,0,0,0-1.022-1.034,1.006,1.006,0,0,0-.914.462.958.958,0,0,0-.86-.462.866.866,0,0,0-.763.386v-.321h-.565v2.6h.573v-1.441a.608.608,0,0,1,.633-.692c.377,0,.568.245.568.686v1.448h.571v-1.441a.615.615,0,0,1,.636-.692c.388,0,.571.245.571.686v1.448Z" transform="translate(-61.925 -252.213)" fill="#171412"/>
  </g>
</svg>
