<svg xmlns="http://www.w3.org/2000/svg" width="60" height="37" viewBox="0 0 60 37">
  <rect id="Rectangle_79" data-name="Rectangle 79" width="60" height="37" rx="4" fill="#fff"/>
  <g id="Group_132" data-name="Group 132" transform="translate(13.881 5.815)">
    <path id="Path_244" data-name="Path 244" d="M17.153,172.274v-1.647a.966.966,0,0,0-1.043-1.043,1.083,1.083,0,0,0-.933.467.96.96,0,0,0-.878-.467.887.887,0,0,0-.769.384v-.329h-.577v2.636h.577v-1.455c0-.467.247-.686.631-.686s.577.247.577.686v1.455h.577v-1.455a.607.607,0,0,1,.631-.686c.384,0,.577.247.577.686v1.455Zm8.538-2.636h-.933v-.8h-.577v.8h-.522v.522h.522v1.208c0,.6.247.961.906.961a1.536,1.536,0,0,0,.714-.192l-.165-.494a.9.9,0,0,1-.494.137c-.275,0-.384-.165-.384-.439v-1.18h.933v-.522Zm4.887-.055a.774.774,0,0,0-.686.384v-.329h-.577v2.636h.577v-1.483c0-.439.192-.686.549-.686a1.6,1.6,0,0,1,.357.055l.165-.549a1.816,1.816,0,0,0-.384-.027Zm-7.385.275a1.885,1.885,0,0,0-1.071-.275c-.659,0-1.1.329-1.1.851,0,.439.33.686.906.769l.275.027c.3.055.467.137.467.275,0,.192-.22.329-.6.329a1.516,1.516,0,0,1-.879-.275l-.275.439a1.942,1.942,0,0,0,1.126.329c.769,0,1.208-.357,1.208-.851,0-.467-.357-.714-.906-.8l-.275-.028c-.247-.027-.439-.082-.439-.247,0-.192.192-.3.494-.3a1.978,1.978,0,0,1,.824.22l.247-.467Zm15.32-.275a.774.774,0,0,0-.686.384v-.329h-.577v2.636h.577v-1.483c0-.439.192-.686.549-.686a1.6,1.6,0,0,1,.357.055l.165-.549a1.816,1.816,0,0,0-.384-.027Zm-7.358,1.373a1.319,1.319,0,0,0,1.4,1.373,1.366,1.366,0,0,0,.933-.3l-.275-.467a1.109,1.109,0,0,1-.686.247.779.779,0,0,1-.8-.851.81.81,0,0,1,.8-.851,1.109,1.109,0,0,1,.686.247l.275-.467a1.365,1.365,0,0,0-.933-.3,1.319,1.319,0,0,0-1.4,1.373Zm5.326,0v-1.318H35.9v.329a.992.992,0,0,0-.824-.384,1.374,1.374,0,0,0,0,2.745.924.924,0,0,0,.824-.384v.329h.577Zm-2.114,0a.8.8,0,1,1,1.592,0,.8.8,0,1,1-1.592,0Zm-6.891-1.373a1.373,1.373,0,0,0,.027,2.745,1.68,1.68,0,0,0,1.071-.357l-.275-.412a1.312,1.312,0,0,1-.769.275.741.741,0,0,1-.8-.631h1.949v-.22a1.213,1.213,0,0,0-1.208-1.4Zm0,.494a.642.642,0,0,1,.659.631H26.762a.7.7,0,0,1,.714-.631Zm14.3.879V168.6H41.2v1.373a.992.992,0,0,0-.824-.384,1.374,1.374,0,0,0,0,2.745.924.924,0,0,0,.824-.384v.329h.577Zm-2.114,0a.8.8,0,1,1,1.592,0,.8.8,0,1,1-1.592,0Zm-19.273,0v-1.318h-.577v.329a.992.992,0,0,0-.824-.384,1.374,1.374,0,0,0,0,2.745.924.924,0,0,0,.824-.384v.329h.577Zm-2.141,0a.8.8,0,1,1,1.592,0,.8.8,0,1,1-1.592,0Z" transform="translate(-11.332 -147.51)"/>
    <rect id="Rectangle_80" data-name="Rectangle 80" width="8.648" height="15.539" transform="translate(11.668 2.114)" fill="#ff5f00"/>
    <path id="Path_245" data-name="Path 245" d="M12.217,9.884a9.91,9.91,0,0,1,3.761-7.77A9.88,9.88,0,1,0,9.884,19.768a9.822,9.822,0,0,0,6.095-2.114A9.869,9.869,0,0,1,12.217,9.884Z" fill="#eb001b"/>
    <path id="Path_246" data-name="Path 246" d="M143.962,9.884a9.873,9.873,0,0,1-15.979,7.77,9.906,9.906,0,0,0,0-15.539,9.873,9.873,0,0,1,15.979,7.77Z" transform="translate(-111.977)" fill="#f79e1b"/>
  </g>
</svg>
