<svg xmlns="http://www.w3.org/2000/svg" width="16.6" height="15.131" viewBox="0 0 16.6 15.131">
  <g id="Group_130" data-name="Group 130" transform="translate(-1018.984 -1806.573)">
    <g id="Group_128" data-name="Group 128" transform="translate(1029.17 1806.573)">
      <path id="Path_238" data-name="Path 238" d="M1033.923,1821.7a.716.716,0,0,1-.578-1.137l4.676-6.428-4.676-6.429a.716.716,0,0,1,1.159-.842l4.982,6.85a.716.716,0,0,1,0,.842l-4.982,6.849a.716.716,0,0,1-.581.3Z" transform="translate(-1033.208 -1806.573)" fill="#fff"/>
    </g>
    <g id="Group_129" data-name="Group 129" transform="translate(1018.984 1813.423)">
      <path id="Path_239" data-name="Path 239" d="M1034.868,1817.571H1019.7a.716.716,0,0,1,0-1.432h15.168a.716.716,0,0,1,0,1.432Z" transform="translate(-1018.984 -1816.139)" fill="#fff"/>
    </g>
  </g>
</svg>
