<svg xmlns="http://www.w3.org/2000/svg" xmlns:xlink="http://www.w3.org/1999/xlink" width="1200" zoomAndPan="magnify" viewBox="0 0 900 899.99999" height="1200" preserveAspectRatio="xMidYMid meet" version="1.0"><defs><clipPath id="a391f0cffe"><path d="M 19.460938 19.410156 L 880.402344 19.410156 L 880.402344 880.398438 L 19.460938 880.398438 Z M 19.460938 19.410156 " clip-rule="nonzero"/></clipPath></defs><g clip-path="url(#a391f0cffe)"><path fill="#00afa9" d="M 755.507812 441.308594 C 757.015625 439.816406 758.480469 438.285156 759.910156 436.722656 C 761.339844 435.15625 762.730469 433.558594 764.082031 431.925781 C 765.429688 430.292969 766.738281 428.628906 768.007812 426.929688 C 769.277344 425.234375 770.503906 423.503906 771.6875 421.746094 C 772.871094 419.988281 774.007812 418.203125 775.105469 416.390625 C 776.199219 414.574219 777.25 412.734375 778.253906 410.871094 C 779.257812 409.003906 780.21875 407.113281 781.128906 405.203125 C 782.039062 403.289062 782.902344 401.355469 783.71875 399.398438 C 784.535156 397.441406 785.304688 395.46875 786.023438 393.476562 C 786.742188 391.480469 787.410156 389.472656 788.03125 387.445312 C 788.648438 385.417969 789.21875 383.378906 789.738281 381.324219 C 790.257812 379.269531 790.726562 377.203125 791.144531 375.125 C 791.5625 373.046875 791.925781 370.960938 792.242188 368.867188 C 792.554688 366.769531 792.816406 364.667969 793.027344 362.558594 C 793.238281 360.449219 793.398438 358.339844 793.503906 356.222656 C 793.613281 354.105469 793.667969 351.988281 793.667969 349.867188 C 793.671875 347.75 793.621094 345.632812 793.519531 343.515625 C 793.417969 341.398438 793.265625 339.285156 793.058594 337.175781 C 792.851562 335.066406 792.59375 332.964844 792.285156 330.867188 C 791.972656 328.773438 791.613281 326.683594 791.199219 324.605469 C 790.789062 322.527344 790.324219 320.460938 789.808594 318.40625 C 789.296875 316.347656 788.730469 314.308594 788.113281 312.28125 C 787.5 310.25 786.835938 308.242188 786.121094 306.246094 C 785.40625 304.25 784.644531 302.273438 783.832031 300.316406 C 783.019531 298.359375 782.160156 296.421875 781.253906 294.507812 C 780.347656 292.59375 779.394531 290.699219 778.390625 288.832031 C 777.390625 286.964844 776.347656 285.121094 775.253906 283.304688 C 774.164062 281.488281 773.027344 279.699219 771.847656 277.941406 C 770.667969 276.179688 769.449219 274.449219 768.183594 272.75 C 766.917969 271.046875 765.613281 269.378906 764.265625 267.746094 C 762.917969 266.109375 761.53125 264.507812 760.105469 262.9375 C 758.679688 261.371094 757.21875 259.839844 755.714844 258.34375 C 754.214844 256.847656 752.675781 255.390625 751.105469 253.972656 C 749.53125 252.550781 747.925781 251.171875 746.28125 249.832031 C 744.640625 248.488281 742.96875 247.191406 741.261719 245.933594 C 739.558594 244.675781 737.824219 243.457031 736.058594 242.285156 C 734.292969 241.113281 732.5 239.984375 730.679688 238.902344 C 728.859375 237.816406 727.011719 236.777344 725.140625 235.785156 C 723.269531 234.792969 721.375 233.84375 719.453125 232.945312 C 717.535156 232.046875 715.597656 231.195312 713.636719 230.390625 C 711.675781 229.585938 709.695312 228.832031 707.699219 228.125 C 705.699219 227.417969 703.6875 226.761719 701.65625 226.152344 C 699.625 225.546875 697.582031 224.988281 695.523438 224.480469 C 693.46875 223.976562 691.398438 223.519531 689.316406 223.113281 C 687.238281 222.710938 685.148438 222.355469 683.050781 222.054688 C 680.953125 221.753906 678.851562 221.503906 676.742188 221.304688 C 674.628906 221.109375 672.515625 220.960938 670.398438 220.867188 C 668.285156 220.773438 666.164062 220.734375 664.046875 220.742188 C 661.925781 220.753906 659.808594 220.816406 657.695312 220.929688 C 655.578125 221.046875 653.464844 221.214844 651.359375 221.433594 C 649.25 221.652344 647.148438 221.921875 645.054688 222.246094 C 642.960938 222.566406 640.875 222.941406 638.800781 223.367188 C 636.722656 223.792969 634.660156 224.269531 632.605469 224.792969 C 630.554688 225.320312 628.515625 225.898438 626.492188 226.527344 C 624.46875 227.15625 622.460938 227.832031 620.46875 228.558594 C 618.480469 229.285156 616.507812 230.058594 614.554688 230.882812 C 612.601562 231.707031 610.671875 232.578125 608.761719 233.496094 C 606.851562 234.414062 604.96875 235.382812 603.105469 236.394531 C 601.242188 237.40625 599.40625 238.460938 597.597656 239.5625 C 595.789062 240.667969 594.003906 241.8125 592.253906 243.003906 C 590.5 244.191406 588.777344 245.425781 587.082031 246.699219 C 585.390625 247.976562 583.730469 249.289062 582.101562 250.648438 C 580.476562 252.003906 578.882812 253.402344 577.324219 254.835938 C 575.765625 256.273438 574.242188 257.746094 572.753906 259.253906 C 562.480469 252.003906 551.636719 245.734375 540.230469 240.445312 C 541.746094 238.960938 543.226562 237.441406 544.667969 235.882812 C 546.109375 234.324219 547.511719 232.730469 548.875 231.101562 C 550.238281 229.472656 551.5625 227.8125 552.84375 226.121094 C 554.125 224.429688 555.367188 222.703125 556.5625 220.949219 C 557.757812 219.195312 558.910156 217.414062 560.019531 215.601562 C 561.128906 213.792969 562.191406 211.953125 563.210938 210.089844 C 564.230469 208.226562 565.199219 206.339844 566.125 204.429688 C 567.050781 202.519531 567.929688 200.585938 568.757812 198.628906 C 569.589844 196.675781 570.371094 194.703125 571.101562 192.707031 C 571.835938 190.714844 572.515625 188.707031 573.152344 186.679688 C 573.785156 184.652344 574.367188 182.609375 574.898438 180.554688 C 575.433594 178.5 575.914062 176.433594 576.34375 174.351562 C 576.777344 172.273438 577.15625 170.183594 577.484375 168.085938 C 577.808594 165.988281 578.085938 163.882812 578.308594 161.773438 C 578.535156 159.660156 578.707031 157.546875 578.824219 155.425781 C 578.945312 153.304688 579.011719 151.183594 579.027344 149.058594 C 579.042969 146.9375 579.003906 144.8125 578.914062 142.691406 C 578.824219 140.570312 578.683594 138.453125 578.488281 136.339844 C 578.292969 134.222656 578.046875 132.117188 577.75 130.011719 C 577.453125 127.910156 577.101562 125.816406 576.699219 123.730469 C 576.300781 121.648438 575.847656 119.574219 575.34375 117.507812 C 574.839844 115.445312 574.285156 113.398438 573.679688 111.363281 C 573.074219 109.328125 572.421875 107.308594 571.714844 105.304688 C 571.011719 103.300781 570.257812 101.316406 569.457031 99.351562 C 568.652344 97.382812 567.804688 95.4375 566.90625 93.515625 C 566.007812 91.589844 565.0625 89.691406 564.070312 87.8125 C 563.078125 85.933594 562.042969 84.082031 560.957031 82.257812 C 559.875 80.429688 558.746094 78.632812 557.574219 76.859375 C 556.402344 75.089844 555.1875 73.347656 553.929688 71.636719 C 552.671875 69.929688 551.375 68.25 550.03125 66.601562 C 548.691406 64.957031 547.3125 63.34375 545.890625 61.765625 C 544.472656 60.183594 543.011719 58.644531 541.515625 57.136719 C 540.019531 55.628906 538.488281 54.160156 536.917969 52.730469 C 535.351562 51.296875 533.75 49.90625 532.109375 48.554688 C 530.472656 47.203125 528.804688 45.890625 527.101562 44.621094 C 525.398438 43.351562 523.667969 42.125 521.90625 40.941406 C 520.144531 39.753906 518.351562 38.617188 516.535156 37.519531 C 514.714844 36.421875 512.871094 35.371094 511 34.367188 C 509.128906 33.363281 507.234375 32.40625 505.316406 31.492188 C 503.398438 30.582031 501.460938 29.71875 499.5 28.902344 C 497.539062 28.085938 495.5625 27.316406 493.5625 26.597656 C 491.566406 25.882812 489.550781 25.210938 487.519531 24.59375 C 485.488281 23.972656 483.441406 23.40625 481.382812 22.886719 C 479.324219 22.367188 477.253906 21.902344 475.171875 21.484375 C 473.089844 21.070312 470.996094 20.707031 468.898438 20.390625 C 466.796875 20.078125 464.691406 19.816406 462.578125 19.609375 C 460.464844 19.398438 458.347656 19.242188 456.226562 19.136719 C 454.105469 19.035156 451.984375 18.980469 449.859375 18.980469 C 447.734375 18.980469 445.613281 19.035156 443.492188 19.136719 C 441.371094 19.242188 439.253906 19.398438 437.140625 19.609375 C 435.027344 19.816406 432.921875 20.078125 430.820312 20.390625 C 428.722656 20.707031 426.628906 21.070312 424.546875 21.484375 C 422.464844 21.902344 420.394531 22.367188 418.335938 22.886719 C 416.277344 23.40625 414.230469 23.972656 412.199219 24.59375 C 410.167969 25.210938 408.15625 25.882812 406.15625 26.597656 C 404.15625 27.316406 402.179688 28.085938 400.21875 28.902344 C 398.257812 29.71875 396.320312 30.582031 394.402344 31.492188 C 392.484375 32.402344 390.589844 33.363281 388.71875 34.367188 C 386.847656 35.371094 385.003906 36.421875 383.183594 37.519531 C 381.367188 38.617188 379.574219 39.753906 377.8125 40.941406 C 376.050781 42.125 374.320312 43.351562 372.617188 44.621094 C 370.914062 45.890625 369.246094 47.203125 367.609375 48.554688 C 365.96875 49.90625 364.367188 51.296875 362.796875 52.730469 C 361.230469 54.160156 359.699219 55.628906 358.203125 57.136719 C 356.707031 58.644531 355.246094 60.183594 353.828125 61.765625 C 352.40625 63.34375 351.027344 64.957031 349.6875 66.601562 C 348.34375 68.25 347.046875 69.929688 345.789062 71.636719 C 344.53125 73.347656 343.316406 75.089844 342.144531 76.859375 C 340.972656 78.632812 339.84375 80.429688 338.761719 82.257812 C 337.675781 84.082031 336.640625 85.933594 335.648438 87.8125 C 334.65625 89.691406 333.710938 91.589844 332.8125 93.515625 C 331.914062 95.4375 331.066406 97.382812 330.261719 99.351562 C 329.460938 101.316406 328.707031 103.300781 328.003906 105.304688 C 327.296875 107.308594 326.644531 109.328125 326.039062 111.363281 C 325.433594 113.398438 324.878906 115.445312 324.375 117.507812 C 323.871094 119.574219 323.417969 121.648438 323.019531 123.730469 C 322.617188 125.816406 322.265625 127.910156 321.96875 130.011719 C 321.671875 132.117188 321.425781 134.222656 321.230469 136.339844 C 321.035156 138.453125 320.894531 140.570312 320.804688 142.691406 C 320.714844 144.8125 320.675781 146.9375 320.691406 149.058594 C 320.707031 151.183594 320.773438 153.304688 320.894531 155.425781 C 321.011719 157.546875 321.183594 159.660156 321.410156 161.773438 C 321.632812 163.882812 321.910156 165.988281 322.238281 168.085938 C 322.5625 170.183594 322.941406 172.273438 323.375 174.351562 C 323.804688 176.433594 324.285156 178.5 324.820312 180.554688 C 325.351562 182.609375 325.933594 184.652344 326.566406 186.679688 C 327.203125 188.707031 327.882812 190.714844 328.617188 192.707031 C 329.347656 194.703125 330.128906 196.675781 330.960938 198.628906 C 331.789062 200.585938 332.667969 202.519531 333.59375 204.429688 C 334.519531 206.339844 335.488281 208.226562 336.507812 210.089844 C 337.527344 211.953125 338.589844 213.792969 339.699219 215.601562 C 340.808594 217.414062 341.960938 219.195312 343.15625 220.949219 C 344.351562 222.703125 345.59375 224.429688 346.875 226.121094 C 348.15625 227.8125 349.480469 229.472656 350.84375 231.101562 C 352.207031 232.730469 353.609375 234.324219 355.050781 235.882812 C 356.492188 237.441406 357.972656 238.960938 359.488281 240.445312 C 348.082031 245.734375 337.246094 252.003906 326.972656 259.253906 C 325.492188 257.730469 323.972656 256.242188 322.414062 254.789062 C 320.859375 253.339844 319.265625 251.929688 317.640625 250.558594 C 316.015625 249.1875 314.355469 247.855469 312.664062 246.566406 C 310.972656 245.277344 309.25 244.03125 307.496094 242.824219 C 305.742188 241.621094 303.957031 240.460938 302.148438 239.34375 C 300.335938 238.230469 298.496094 237.160156 296.632812 236.132812 C 294.769531 235.109375 292.882812 234.128906 290.96875 233.199219 C 289.054688 232.265625 287.121094 231.382812 285.164062 230.546875 C 283.207031 229.710938 281.234375 228.925781 279.238281 228.1875 C 277.242188 227.449219 275.230469 226.757812 273.199219 226.121094 C 271.171875 225.480469 269.125 224.894531 267.070312 224.355469 C 265.011719 223.820312 262.941406 223.332031 260.855469 222.898438 C 258.773438 222.460938 256.683594 222.078125 254.582031 221.75 C 252.480469 221.417969 250.371094 221.136719 248.253906 220.910156 C 246.140625 220.683594 244.019531 220.507812 241.898438 220.386719 C 239.773438 220.261719 237.648438 220.195312 235.519531 220.175781 C 233.390625 220.160156 231.265625 220.195312 229.140625 220.28125 C 227.015625 220.371094 224.890625 220.511719 222.773438 220.703125 C 220.65625 220.898438 218.542969 221.144531 216.4375 221.441406 C 214.328125 221.738281 212.230469 222.089844 210.140625 222.488281 C 208.054688 222.890625 205.976562 223.34375 203.90625 223.847656 C 201.839844 224.351562 199.789062 224.90625 197.75 225.511719 C 195.710938 226.117188 193.6875 226.773438 191.679688 227.480469 C 189.671875 228.1875 187.683594 228.941406 185.714844 229.746094 C 183.746094 230.550781 181.796875 231.402344 179.867188 232.304688 C 177.941406 233.203125 176.039062 234.152344 174.15625 235.148438 C 172.277344 236.140625 170.421875 237.183594 168.59375 238.269531 C 166.761719 239.355469 164.960938 240.488281 163.191406 241.664062 C 161.417969 242.839844 159.671875 244.058594 157.960938 245.320312 C 156.25 246.582031 154.566406 247.886719 152.917969 249.230469 C 151.269531 250.574219 149.65625 251.960938 148.078125 253.386719 C 146.496094 254.8125 144.953125 256.273438 143.449219 257.777344 C 141.941406 259.277344 140.472656 260.816406 139.039062 262.390625 C 137.609375 263.964844 136.21875 265.570312 134.867188 267.214844 C 133.511719 268.855469 132.203125 270.53125 130.933594 272.242188 C 129.667969 273.949219 128.441406 275.6875 127.257812 277.453125 C 126.074219 279.222656 124.9375 281.019531 123.84375 282.84375 C 122.75 284.667969 121.699219 286.519531 120.699219 288.398438 C 119.695312 290.273438 118.742188 292.171875 117.832031 294.097656 C 116.925781 296.019531 116.066406 297.964844 115.253906 299.933594 C 114.441406 301.898438 113.679688 303.882812 112.964844 305.886719 C 112.25 307.894531 111.585938 309.914062 110.972656 311.949219 C 110.359375 313.988281 109.796875 316.039062 109.285156 318.101562 C 108.769531 320.167969 108.308594 322.246094 107.902344 324.332031 C 107.492188 326.417969 107.132812 328.515625 106.828125 330.621094 C 106.523438 332.726562 106.269531 334.839844 106.066406 336.957031 C 105.867188 339.074219 105.714844 341.195312 105.621094 343.320312 C 105.523438 345.445312 105.480469 347.574219 105.488281 349.699219 C 105.496094 351.828125 105.558594 353.953125 105.671875 356.078125 C 105.789062 358.203125 105.953125 360.324219 106.171875 362.4375 C 106.390625 364.554688 106.664062 366.664062 106.984375 368.769531 C 107.308594 370.871094 107.683594 372.964844 108.113281 375.046875 C 108.539062 377.132812 109.015625 379.203125 109.546875 381.265625 C 110.074219 383.324219 110.65625 385.371094 111.285156 387.402344 C 111.917969 389.433594 112.597656 391.449219 113.328125 393.449219 C 114.058594 395.445312 114.835938 397.425781 115.664062 399.386719 C 116.492188 401.34375 117.371094 403.28125 118.292969 405.199219 C 119.21875 407.117188 120.1875 409.007812 121.207031 410.875 C 122.226562 412.746094 123.289062 414.585938 124.398438 416.402344 C 125.507812 418.21875 126.660156 420.003906 127.855469 421.761719 C 129.054688 423.523438 130.292969 425.25 131.578125 426.945312 C 132.859375 428.644531 134.183594 430.308594 135.550781 431.941406 C 136.914062 433.570312 138.320312 435.167969 139.761719 436.730469 C 141.207031 438.292969 142.691406 439.816406 144.210938 441.308594 C 139.578125 443.441406 135.027344 445.734375 130.5625 448.195312 C 126.09375 450.652344 121.71875 453.265625 117.4375 456.035156 C 113.15625 458.804688 108.976562 461.722656 104.90625 464.792969 C 100.832031 467.859375 96.875 471.066406 93.027344 474.417969 C 89.183594 477.769531 85.464844 481.25 81.867188 484.867188 C 78.273438 488.480469 74.808594 492.21875 71.480469 496.082031 C 68.152344 499.945312 64.964844 503.921875 61.917969 508.011719 C 58.875 512.101562 55.976562 516.292969 53.230469 520.589844 C 50.484375 524.886719 47.894531 529.273438 45.460938 533.753906 C 43.027344 538.238281 40.757812 542.796875 38.648438 547.441406 C 36.539062 552.085938 34.601562 556.796875 32.828125 561.578125 C 31.054688 566.359375 29.457031 571.199219 28.027344 576.09375 C 26.601562 580.988281 25.351562 585.929688 24.277344 590.914062 C 23.203125 595.898438 22.304688 600.914062 21.589844 605.960938 C 20.871094 611.011719 20.335938 616.078125 19.980469 621.164062 C 19.625 626.253906 19.453125 631.34375 19.460938 636.445312 L 19.460938 765.613281 C 19.460938 766.554688 19.554688 767.488281 19.738281 768.414062 C 19.921875 769.335938 20.195312 770.234375 20.554688 771.105469 C 20.917969 771.972656 21.359375 772.800781 21.882812 773.582031 C 22.40625 774.367188 23 775.089844 23.667969 775.757812 C 24.332031 776.421875 25.058594 777.015625 25.84375 777.539062 C 26.625 778.0625 27.453125 778.503906 28.324219 778.867188 C 29.191406 779.226562 30.089844 779.496094 31.015625 779.679688 C 31.9375 779.863281 32.871094 779.957031 33.8125 779.957031 L 239.0625 779.957031 C 236.128906 794.15625 234.640625 808.507812 234.605469 823.007812 L 234.605469 866.054688 C 234.605469 866.996094 234.699219 867.929688 234.882812 868.855469 C 235.070312 869.777344 235.339844 870.675781 235.703125 871.546875 C 236.0625 872.414062 236.503906 873.242188 237.027344 874.023438 C 237.554688 874.808594 238.148438 875.53125 238.8125 876.199219 C 239.480469 876.863281 240.207031 877.457031 240.988281 877.980469 C 241.773438 878.503906 242.597656 878.945312 243.46875 879.304688 C 244.339844 879.667969 245.238281 879.9375 246.160156 880.121094 C 247.085938 880.304688 248.019531 880.398438 248.960938 880.398438 L 650.835938 880.398438 C 651.777344 880.398438 652.710938 880.304688 653.636719 880.121094 C 654.558594 879.9375 655.457031 879.667969 656.328125 879.304688 C 657.195312 878.945312 658.023438 878.503906 658.808594 877.980469 C 659.589844 877.457031 660.316406 876.863281 660.980469 876.199219 C 661.648438 875.53125 662.242188 874.808594 662.765625 874.023438 C 663.289062 873.242188 663.734375 872.414062 664.09375 871.542969 C 664.453125 870.675781 664.726562 869.777344 664.914062 868.855469 C 665.097656 867.929688 665.1875 866.996094 665.191406 866.054688 L 665.191406 823.007812 C 665.15625 808.507812 663.671875 794.15625 660.734375 779.957031 L 866.050781 779.957031 C 866.992188 779.957031 867.925781 779.863281 868.847656 779.679688 C 869.773438 779.496094 870.671875 779.226562 871.539062 778.867188 C 872.410156 778.503906 873.238281 778.0625 874.019531 777.539062 C 874.804688 777.015625 875.53125 776.421875 876.195312 775.757812 C 876.863281 775.089844 877.457031 774.367188 877.980469 773.582031 C 878.503906 772.800781 878.945312 771.972656 879.308594 771.105469 C 879.667969 770.234375 879.941406 769.335938 880.125 768.414062 C 880.308594 767.488281 880.402344 766.554688 880.402344 765.613281 L 880.402344 636.445312 C 880.410156 631.34375 880.234375 626.25 879.878906 621.160156 C 879.519531 616.070312 878.984375 611 878.261719 605.949219 C 877.542969 600.902344 876.648438 595.882812 875.570312 590.898438 C 874.492188 585.910156 873.238281 580.96875 871.808594 576.074219 C 870.382812 571.175781 868.777344 566.335938 867.003906 561.554688 C 865.230469 556.769531 863.285156 552.058594 861.175781 547.414062 C 859.0625 542.769531 856.789062 538.207031 854.351562 533.726562 C 851.917969 529.246094 849.324219 524.855469 846.574219 520.558594 C 843.824219 516.261719 840.925781 512.070312 837.875 507.980469 C 834.824219 503.890625 831.636719 499.914062 828.300781 496.054688 C 824.96875 492.191406 821.503906 488.453125 817.902344 484.839844 C 814.304688 481.226562 810.582031 477.742188 806.734375 474.394531 C 802.882812 471.046875 798.921875 467.835938 794.84375 464.773438 C 790.769531 461.707031 786.585938 458.789062 782.304688 456.019531 C 778.019531 453.253906 773.640625 450.640625 769.167969 448.1875 C 764.695312 445.730469 760.144531 443.4375 755.507812 441.308594 Z M 665.113281 249.011719 C 667.796875 249.007812 670.480469 249.113281 673.15625 249.328125 C 675.832031 249.542969 678.496094 249.863281 681.148438 250.289062 C 683.800781 250.714844 686.429688 251.25 689.039062 251.886719 C 691.644531 252.527344 694.226562 253.265625 696.773438 254.113281 C 699.324219 254.957031 701.832031 255.902344 704.308594 256.949219 C 706.78125 257.996094 709.207031 259.140625 711.589844 260.382812 C 713.96875 261.625 716.296875 262.960938 718.570312 264.386719 C 720.84375 265.816406 723.058594 267.332031 725.210938 268.941406 C 727.363281 270.546875 729.449219 272.234375 731.464844 274.007812 C 733.480469 275.78125 735.421875 277.632812 737.292969 279.5625 C 739.160156 281.492188 740.949219 283.492188 742.65625 285.566406 C 744.363281 287.636719 745.984375 289.777344 747.519531 291.980469 C 749.054688 294.179688 750.5 296.441406 751.855469 298.761719 C 753.210938 301.078125 754.46875 303.449219 755.632812 305.867188 C 756.800781 308.289062 757.863281 310.75 758.832031 313.257812 C 759.796875 315.761719 760.664062 318.300781 761.425781 320.878906 C 762.1875 323.453125 762.847656 326.054688 763.402344 328.679688 C 763.957031 331.308594 764.402344 333.953125 764.746094 336.617188 C 765.085938 339.28125 765.320312 341.953125 765.449219 344.636719 C 765.578125 347.320312 765.597656 350.003906 765.507812 352.6875 C 765.417969 355.371094 765.222656 358.046875 764.921875 360.714844 C 764.617188 363.382812 764.210938 366.035156 763.695312 368.671875 C 763.179688 371.304688 762.558594 373.917969 761.832031 376.503906 C 761.109375 379.089844 760.28125 381.640625 759.351562 384.160156 C 758.421875 386.679688 757.390625 389.15625 756.261719 391.59375 C 755.132812 394.03125 753.910156 396.417969 752.585938 398.757812 C 751.265625 401.09375 749.855469 403.375 748.351562 405.601562 C 746.847656 407.828125 745.257812 409.988281 743.582031 412.085938 C 741.902344 414.183594 740.144531 416.210938 738.304688 418.167969 C 736.464844 420.121094 734.550781 422 732.558594 423.804688 C 730.570312 425.605469 728.511719 427.328125 726.382812 428.964844 C 724.253906 430.601562 722.0625 432.152344 719.808594 433.613281 C 715.769531 436.261719 711.554688 438.605469 707.175781 440.640625 C 702.792969 442.679688 698.285156 444.386719 693.652344 445.769531 C 689.023438 447.148438 684.316406 448.1875 679.535156 448.878906 C 674.75 449.574219 669.945312 449.921875 665.113281 449.914062 C 662.953125 449.914062 660.800781 449.78125 657.796875 449.625 C 657.179688 449.601562 656.566406 449.539062 655.957031 449.4375 C 655.378906 449.359375 653.53125 449.070312 652.964844 449.070312 L 650.9375 448.789062 C 650.136719 448.691406 649.355469 448.601562 647.351562 448.1875 C 643.894531 447.671875 640.492188 446.898438 637.152344 445.871094 C 635.792969 445.539062 634.445312 445.070312 633.210938 444.648438 C 630.738281 443.8125 628.300781 442.882812 625.902344 441.859375 C 623.5 440.832031 621.144531 439.71875 618.832031 438.511719 C 616.519531 437.300781 614.253906 436.007812 612.042969 434.625 C 609.828125 433.242188 607.671875 431.773438 605.574219 430.222656 C 603.476562 428.671875 601.441406 427.042969 599.46875 425.332031 C 597.496094 423.625 595.59375 421.84375 593.757812 419.984375 C 591.925781 418.128906 590.167969 416.203125 588.480469 414.210938 C 586.796875 412.21875 585.191406 410.164062 583.667969 408.046875 C 582.144531 405.925781 580.703125 403.753906 579.347656 401.523438 C 577.992188 399.292969 576.722656 397.015625 575.546875 394.6875 C 574.367188 392.359375 573.277344 389.988281 572.285156 387.578125 C 571.289062 385.164062 570.390625 382.71875 569.585938 380.234375 C 568.78125 377.753906 568.074219 375.242188 567.460938 372.707031 C 566.851562 370.167969 566.34375 367.609375 565.929688 365.035156 C 565.519531 362.457031 565.207031 359.867188 565 357.265625 C 564.789062 354.667969 564.679688 352.0625 564.671875 349.453125 C 564.757812 342.433594 565.582031 335.503906 567.144531 328.660156 C 567.714844 325.867188 568.40625 323.105469 569.214844 320.371094 C 570.027344 317.636719 570.953125 314.945312 571.992188 312.289062 C 573.03125 309.636719 574.1875 307.03125 575.449219 304.476562 C 576.714844 301.921875 578.085938 299.425781 579.5625 296.984375 C 581.042969 294.546875 582.621094 292.179688 584.304688 289.875 C 585.988281 287.574219 587.765625 285.347656 589.636719 283.199219 C 591.511719 281.050781 593.472656 278.984375 595.519531 277.003906 C 597.570312 275.023438 599.703125 273.132812 601.914062 271.332031 C 604.125 269.535156 606.410156 267.835938 608.769531 266.234375 C 611.128906 264.628906 613.550781 263.132812 616.039062 261.738281 C 618.523438 260.34375 621.066406 259.058594 623.664062 257.882812 C 626.257812 256.703125 628.902344 255.640625 631.589844 254.691406 C 634.277344 253.742188 637.003906 252.910156 639.761719 252.191406 C 642.523438 251.476562 645.308594 250.878906 648.117188 250.402344 C 650.929688 249.925781 653.753906 249.570312 656.597656 249.335938 C 659.4375 249.101562 662.285156 248.988281 665.132812 249 Z M 349.414062 148.558594 C 349.410156 146.714844 349.457031 144.871094 349.554688 143.03125 C 349.652344 141.191406 349.800781 139.351562 350 137.519531 C 350.199219 135.6875 350.449219 133.859375 350.75 132.042969 C 351.046875 130.222656 351.398438 128.414062 351.796875 126.613281 C 352.195312 124.8125 352.644531 123.027344 353.140625 121.25 C 353.640625 119.476562 354.183594 117.714844 354.78125 115.96875 C 355.375 114.226562 356.015625 112.496094 356.707031 110.789062 C 357.394531 109.078125 358.132812 107.386719 358.914062 105.71875 C 359.695312 104.050781 360.523438 102.402344 361.398438 100.777344 C 362.269531 99.15625 363.1875 97.558594 364.148438 95.984375 C 365.109375 94.410156 366.113281 92.863281 367.160156 91.347656 C 368.207031 89.828125 369.292969 88.339844 370.421875 86.882812 C 371.550781 85.425781 372.714844 83.996094 373.921875 82.605469 C 375.128906 81.210938 376.375 79.851562 377.65625 78.523438 C 378.9375 77.199219 380.253906 75.910156 381.605469 74.65625 C 382.957031 73.402344 384.34375 72.1875 385.761719 71.011719 C 387.183594 69.835938 388.632812 68.699219 390.113281 67.601562 C 391.597656 66.503906 393.105469 65.449219 394.648438 64.433594 C 396.1875 63.421875 397.753906 62.449219 399.347656 61.523438 C 400.941406 60.59375 402.558594 59.710938 404.199219 58.875 C 405.839844 58.035156 407.503906 57.242188 409.191406 56.496094 C 410.875 55.75 412.582031 55.046875 414.304688 54.394531 C 416.027344 53.742188 417.769531 53.136719 419.527344 52.578125 C 421.285156 52.023438 423.054688 51.511719 424.839844 51.054688 C 426.625 50.59375 428.421875 50.183594 430.230469 49.824219 C 432.039062 49.460938 433.855469 49.152344 435.679688 48.890625 C 437.503906 48.628906 439.335938 48.417969 441.171875 48.257812 C 443.007812 48.097656 444.847656 47.988281 446.691406 47.929688 C 448.535156 47.871094 450.378906 47.859375 452.222656 47.902344 C 454.0625 47.945312 455.90625 48.039062 457.742188 48.183594 C 459.582031 48.328125 461.414062 48.519531 463.242188 48.765625 C 465.066406 49.007812 466.886719 49.304688 468.699219 49.648438 C 470.507812 49.992188 472.308594 50.386719 474.097656 50.832031 C 475.890625 51.277344 477.664062 51.769531 479.425781 52.308594 C 481.1875 52.851562 482.933594 53.441406 484.664062 54.078125 C 486.394531 54.714844 488.105469 55.402344 489.796875 56.132812 C 491.492188 56.863281 493.160156 57.640625 494.8125 58.464844 C 496.460938 59.289062 498.085938 60.15625 499.6875 61.070312 C 501.289062 61.984375 502.863281 62.941406 504.414062 63.941406 C 505.960938 64.941406 507.480469 65.980469 508.972656 67.066406 C 510.464844 68.148438 511.925781 69.273438 513.355469 70.4375 C 514.785156 71.601562 516.183594 72.804688 517.546875 74.042969 C 518.910156 75.285156 520.238281 76.5625 521.53125 77.875 C 522.824219 79.191406 524.082031 80.539062 525.300781 81.921875 C 526.519531 83.304688 527.699219 84.71875 528.839844 86.167969 C 529.980469 87.617188 531.082031 89.09375 532.140625 90.601562 C 533.203125 92.113281 534.21875 93.648438 535.195312 95.210938 C 536.167969 96.777344 537.101562 98.367188 537.988281 99.984375 C 538.875 101.597656 539.71875 103.238281 540.515625 104.898438 C 541.3125 106.5625 542.066406 108.246094 542.769531 109.949219 C 543.476562 111.652344 544.132812 113.375 544.742188 115.113281 C 545.351562 116.855469 545.914062 118.609375 546.429688 120.378906 C 546.941406 122.148438 547.40625 123.933594 547.820312 125.730469 C 548.238281 127.527344 548.601562 129.332031 548.917969 131.148438 C 549.234375 132.964844 549.5 134.789062 549.714844 136.621094 C 549.933594 138.449219 550.097656 140.285156 550.210938 142.125 C 550.328125 143.964844 550.390625 145.808594 550.402344 147.652344 C 550.417969 149.496094 550.378906 151.339844 550.292969 153.179688 C 550.203125 155.019531 550.0625 156.859375 549.875 158.691406 C 549.6875 160.527344 549.445312 162.355469 549.15625 164.175781 C 548.867188 165.996094 548.527344 167.808594 548.136719 169.609375 C 547.746094 171.410156 547.308594 173.199219 546.820312 174.980469 C 546.332031 176.757812 545.796875 178.519531 545.210938 180.269531 C 544.625 182.015625 543.992188 183.746094 543.3125 185.460938 C 542.632812 187.175781 541.90625 188.867188 541.132812 190.539062 C 540.359375 192.214844 539.539062 193.867188 538.675781 195.492188 C 537.808594 197.121094 536.902344 198.726562 535.949219 200.304688 C 534.996094 201.882812 534 203.433594 532.964844 204.957031 C 531.925781 206.480469 530.847656 207.976562 529.726562 209.4375 C 528.605469 210.902344 527.445312 212.335938 526.246094 213.734375 C 525.046875 215.136719 523.8125 216.503906 522.535156 217.835938 C 521.261719 219.167969 519.953125 220.464844 518.605469 221.722656 C 517.261719 222.984375 515.882812 224.207031 514.46875 225.390625 C 513.054688 226.574219 511.613281 227.71875 510.136719 228.824219 C 508.660156 229.929688 507.15625 230.992188 505.621094 232.015625 C 504.085938 233.039062 502.523438 234.015625 500.9375 234.953125 C 499.347656 235.890625 497.734375 236.78125 496.097656 237.628906 C 494.460938 238.476562 492.800781 239.277344 491.121094 240.03125 C 489.4375 240.789062 487.738281 241.5 486.015625 242.160156 C 484.296875 242.824219 482.558594 243.4375 480.804688 244.003906 C 479.050781 244.570312 477.28125 245.089844 475.496094 245.558594 C 473.714844 246.027344 471.921875 246.449219 470.113281 246.820312 C 468.308594 247.191406 466.492188 247.511719 464.671875 247.78125 C 462.847656 248.050781 461.015625 248.273438 459.179688 248.441406 C 457.34375 248.613281 455.507812 248.730469 453.664062 248.800781 C 451.820312 248.871094 449.980469 248.886719 448.136719 248.855469 C 446.292969 248.824219 444.449219 248.738281 442.613281 248.605469 C 440.773438 248.472656 438.941406 248.289062 437.109375 248.050781 C 435.28125 247.816406 433.460938 247.53125 431.648438 247.199219 C 429.835938 246.863281 428.035156 246.476562 426.242188 246.042969 C 424.449219 245.609375 422.671875 245.125 420.90625 244.59375 C 419.140625 244.0625 417.390625 243.480469 415.660156 242.855469 C 413.925781 242.226562 412.210938 241.550781 410.515625 240.828125 C 408.820312 240.105469 407.144531 239.335938 405.488281 238.519531 C 403.835938 237.707031 402.207031 236.847656 400.597656 235.941406 C 398.992188 235.039062 397.414062 234.089844 395.859375 233.097656 C 395.613281 232.941406 395.347656 232.839844 395.101562 232.6875 C 391.605469 230.421875 388.261719 227.953125 385.074219 225.273438 C 381.886719 222.59375 378.878906 219.726562 376.050781 216.667969 C 373.222656 213.613281 370.59375 210.394531 368.167969 207.007812 C 365.742188 203.625 363.535156 200.101562 361.550781 196.441406 C 359.5625 192.78125 357.8125 189.011719 356.300781 185.132812 C 354.785156 181.253906 353.519531 177.296875 352.5 173.257812 C 351.480469 169.222656 350.714844 165.136719 350.207031 161.003906 C 349.695312 156.871094 349.445312 152.722656 349.457031 148.558594 Z M 385.601562 260.523438 C 387.382812 261.558594 389.308594 262.304688 391.171875 263.230469 C 393.640625 264.511719 396.09375 265.769531 398.609375 266.882812 C 400.945312 267.882812 403.351562 268.71875 405.746094 269.578125 C 409.230469 270.859375 412.707031 272.105469 416.292969 273.074219 C 416.9375 273.25 417.59375 273.351562 418.25 273.507812 C 423.417969 274.914062 428.65625 275.96875 433.964844 276.675781 C 439.273438 277.386719 444.605469 277.738281 449.960938 277.738281 C 455.316406 277.738281 460.644531 277.386719 465.953125 276.675781 C 471.261719 275.96875 476.5 274.914062 481.667969 273.507812 C 482.28125 273.351562 482.925781 273.25 483.550781 273.097656 C 487.167969 272.117188 490.664062 270.867188 494.183594 269.566406 C 496.554688 268.71875 498.90625 267.882812 501.222656 266.894531 C 503.769531 265.78125 506.222656 264.5 508.714844 263.21875 C 510.554688 262.285156 512.457031 261.539062 514.28125 260.511719 C 528.859375 265.835938 542.523438 272.921875 555.273438 281.769531 C 554.960938 282.28125 554.738281 282.882812 554.425781 283.386719 C 551.6875 287.914062 549.234375 292.597656 547.066406 297.425781 C 547 297.582031 546.941406 297.761719 546.867188 297.929688 C 544.820312 302.699219 543.066406 307.570312 541.597656 312.546875 C 541.308594 313.496094 541.007812 314.429688 540.753906 315.378906 C 539.382812 320.339844 538.316406 325.363281 537.554688 330.453125 C 537.410156 331.445312 537.300781 332.449219 537.1875 333.449219 C 536.476562 338.769531 536.105469 344.117188 536.074219 349.484375 C 536.105469 354.457031 536.417969 359.414062 537.011719 364.351562 C 537.1875 365.886719 537.46875 367.390625 537.699219 368.925781 C 538.214844 372.324219 538.8125 375.6875 539.605469 379.015625 C 539.996094 380.675781 540.40625 382.355469 540.875 383.972656 C 541.777344 387.246094 542.824219 390.453125 543.980469 393.636719 C 544.492188 395.074219 544.972656 396.519531 545.539062 397.921875 C 547.328125 402.390625 549.351562 406.742188 551.621094 410.984375 C 551.765625 411.253906 551.941406 411.519531 552.109375 411.789062 C 554.289062 415.730469 556.675781 419.542969 559.269531 423.222656 C 560.207031 424.582031 561.230469 425.851562 562.222656 427.152344 C 564.179688 429.738281 566.195312 432.253906 568.34375 434.691406 C 569.546875 436.050781 570.785156 437.386719 572.054688 438.710938 C 572.886719 439.570312 573.613281 440.503906 574.46875 441.328125 C 573.691406 441.695312 572.976562 442.210938 572.242188 442.585938 C 564.941406 446.046875 557.863281 449.910156 551.007812 454.179688 C 550.761719 454.335938 550.496094 454.4375 550.25 454.59375 C 550.074219 454.378906 549.871094 454.191406 549.703125 453.992188 C 548.589844 452.6875 547.476562 451.519531 546.363281 450.269531 C 544.058594 447.664062 541.742188 445.09375 539.257812 442.710938 C 537.824219 441.320312 536.285156 440.070312 534.804688 438.746094 C 532.46875 436.695312 530.117188 434.691406 527.644531 432.820312 C 525.976562 431.5625 524.238281 430.40625 522.523438 429.226562 C 520.039062 427.542969 514.953125 424.414062 514.953125 424.414062 C 514.953125 424.414062 511.277344 422.355469 509.382812 421.375 C 506.734375 420.003906 504.015625 418.734375 501.265625 417.554688 C 499.339844 416.71875 497.433594 415.90625 495.464844 415.171875 C 492.570312 414.058594 489.597656 413.179688 486.613281 412.300781 C 484.683594 411.730469 482.804688 411.121094 480.855469 410.652344 C 477.515625 409.851562 474.171875 409.257812 470.710938 408.714844 C 469.027344 408.4375 467.371094 408.066406 465.6875 407.867188 C 460.511719 407.226562 455.316406 406.898438 450.097656 406.886719 C 444.882812 406.902344 439.6875 407.222656 434.507812 407.855469 C 432.761719 408.066406 431.066406 408.445312 429.332031 408.738281 C 425.992188 409.269531 422.648438 409.851562 419.398438 410.628906 C 417.316406 411.128906 415.3125 411.742188 413.273438 412.378906 C 410.46875 413.210938 407.707031 414.058594 404.945312 415.082031 C 402.71875 415.894531 400.589844 416.820312 398.429688 417.757812 C 396.023438 418.800781 393.652344 419.894531 391.324219 421.097656 C 389 422.300781 386.871094 423.480469 384.644531 424.769531 C 382.417969 426.0625 380.625 427.242188 378.652344 428.546875 C 376.425781 430.070312 374.121094 431.609375 371.972656 433.269531 C 370.257812 434.570312 368.632812 435.984375 366.972656 437.367188 C 364.746094 439.234375 362.585938 441.085938 360.503906 443.089844 C 358.964844 444.582031 357.542969 446.207031 356.050781 447.777344 C 354.113281 449.871094 352.117188 451.898438 350.324219 454.136719 C 350.203125 454.292969 350.046875 454.4375 349.914062 454.601562 C 349.667969 454.445312 349.402344 454.347656 349.15625 454.191406 C 342.300781 449.921875 335.222656 446.054688 327.921875 442.597656 C 327.140625 442.222656 326.429688 441.71875 325.695312 441.339844 C 326.585938 440.472656 327.351562 439.492188 328.222656 438.601562 C 329.390625 437.375 330.527344 436.128906 331.652344 434.871094 C 333.878906 432.320312 336.105469 429.660156 338.109375 426.953125 C 339.011719 425.75 339.957031 424.582031 340.828125 423.347656 C 343.546875 419.496094 346.046875 415.503906 348.320312 411.375 C 348.375 411.265625 348.464844 411.164062 348.523438 411.050781 C 350.8125 406.785156 352.855469 402.402344 354.644531 397.902344 C 355.203125 396.53125 355.648438 395.128906 356.148438 393.738281 C 357.320312 390.519531 358.375 387.265625 359.300781 383.949219 C 359.753906 382.324219 360.171875 380.6875 360.558594 379.039062 C 361.328125 375.699219 361.960938 372.355469 362.472656 368.917969 C 362.707031 367.390625 362.996094 365.886719 363.164062 364.363281 C 363.761719 359.429688 364.074219 354.476562 364.101562 349.507812 C 364.070312 344.140625 363.695312 338.800781 362.988281 333.484375 C 362.863281 332.480469 362.765625 331.492188 362.617188 330.5 C 361.855469 325.40625 360.792969 320.378906 359.433594 315.410156 C 359.179688 314.464844 358.855469 313.527344 358.589844 312.582031 C 357.121094 307.59375 355.367188 302.710938 353.320312 297.929688 C 353.242188 297.785156 353.210938 297.628906 353.132812 297.472656 C 350.960938 292.628906 348.503906 287.9375 345.761719 283.398438 C 345.460938 282.882812 345.246094 282.28125 344.925781 281.804688 C 357.566406 272.957031 371.125 265.863281 385.601562 260.523438 Z M 549.558594 548.6875 C 549.109375 552.296875 548.460938 555.867188 547.617188 559.40625 C 546.773438 562.945312 545.742188 566.425781 544.515625 569.851562 C 543.292969 573.277344 541.886719 576.625 540.296875 579.898438 C 538.707031 583.167969 536.945312 586.34375 535.007812 589.425781 C 533.074219 592.503906 530.976562 595.46875 528.714844 598.316406 C 526.453125 601.167969 524.046875 603.886719 521.488281 606.472656 C 518.929688 609.058594 516.238281 611.5 513.417969 613.789062 C 510.59375 616.082031 507.652344 618.214844 504.59375 620.1875 C 498.203125 624.386719 491.414062 627.792969 484.222656 630.40625 C 477.035156 633.019531 469.644531 634.765625 462.046875 635.652344 C 453.796875 636.828125 445.542969 636.828125 437.292969 635.652344 C 429.773438 634.699219 422.457031 632.921875 415.339844 630.3125 C 408.222656 627.707031 401.488281 624.339844 395.132812 620.207031 C 393.792969 619.339844 392.476562 618.4375 391.175781 617.507812 C 389.878906 616.574219 388.605469 615.613281 387.355469 614.621094 C 386.105469 613.625 384.875 612.605469 383.675781 611.550781 C 382.472656 610.5 381.296875 609.421875 380.144531 608.3125 C 378.996094 607.203125 377.871094 606.070312 376.773438 604.90625 C 375.679688 603.746094 374.609375 602.558594 373.570312 601.34375 C 372.53125 600.132812 371.519531 598.894531 370.539062 597.632812 C 369.558594 596.371094 368.609375 595.089844 367.691406 593.78125 C 366.773438 592.476562 365.886719 591.148438 365.03125 589.796875 C 364.175781 588.449219 363.351562 587.082031 362.5625 585.691406 C 361.773438 584.304688 361.015625 582.898438 360.292969 581.472656 C 359.570312 580.046875 358.882812 578.605469 358.230469 577.148438 C 357.574219 575.691406 356.957031 574.21875 356.375 572.730469 C 355.789062 571.242188 355.242188 569.742188 354.730469 568.230469 C 354.21875 566.71875 353.746094 565.191406 353.308594 563.65625 C 352.867188 562.121094 352.46875 560.574219 352.101562 559.019531 C 351.738281 557.464844 351.410156 555.902344 351.121094 554.328125 C 350.832031 552.757812 350.578125 551.179688 350.363281 549.597656 C 350.152344 548.015625 349.972656 546.429688 349.835938 544.835938 C 349.699219 543.246094 349.597656 541.652344 349.535156 540.054688 C 349.472656 538.457031 349.449219 536.863281 349.464844 535.265625 C 349.476562 533.667969 349.53125 532.070312 349.621094 530.476562 C 349.710938 528.882812 349.839844 527.289062 350.007812 525.699219 C 350.175781 524.113281 350.378906 522.527344 350.621094 520.949219 C 350.863281 519.371094 351.144531 517.796875 351.464844 516.234375 C 351.78125 514.667969 352.136719 513.109375 352.527344 511.5625 C 352.921875 510.011719 353.351562 508.476562 353.816406 506.945312 C 354.28125 505.417969 354.785156 503.902344 355.324219 502.398438 C 355.859375 500.894531 356.433594 499.40625 357.046875 497.929688 C 357.65625 496.453125 358.300781 494.992188 358.980469 493.542969 C 359.660156 492.097656 360.371094 490.671875 361.121094 489.257812 C 361.867188 487.847656 362.652344 486.453125 363.464844 485.082031 C 363.890625 484.234375 364.378906 483.425781 364.925781 482.652344 C 365.070312 482.441406 365.15625 482.285156 365.3125 482.050781 C 366.445312 480.277344 367.628906 478.539062 368.871094 476.839844 C 370.113281 475.136719 371.402344 473.476562 372.75 471.859375 C 374.09375 470.238281 375.488281 468.664062 376.933594 467.132812 C 378.375 465.601562 379.867188 464.117188 381.40625 462.679688 C 382.941406 461.242188 384.523438 459.855469 386.148438 458.515625 C 387.773438 457.175781 389.4375 455.890625 391.144531 454.660156 C 392.851562 453.425781 394.59375 452.246094 396.375 451.125 C 398.15625 450 399.96875 448.933594 401.816406 447.925781 C 403.664062 446.914062 405.539062 445.964844 407.445312 445.074219 C 409.355469 444.183594 411.285156 443.351562 413.246094 442.582031 C 415.207031 441.8125 417.1875 441.105469 419.191406 440.460938 C 421.195312 439.816406 423.214844 439.238281 425.257812 438.71875 C 427.296875 438.203125 429.351562 437.75 431.421875 437.363281 C 433.488281 436.972656 435.570312 436.652344 437.65625 436.394531 C 439.746094 436.136719 441.84375 435.945312 443.941406 435.820312 C 446.042969 435.695312 448.148438 435.636719 450.253906 435.644531 C 452.355469 435.652344 454.460938 435.722656 456.558594 435.863281 C 458.660156 436.003906 460.753906 436.210938 462.839844 436.480469 C 464.929688 436.75 467.007812 437.089844 469.070312 437.492188 C 471.136719 437.894531 473.191406 438.359375 475.226562 438.890625 C 477.261719 439.421875 479.28125 440.015625 481.28125 440.675781 C 483.28125 441.332031 485.257812 442.054688 487.210938 442.835938 C 489.164062 443.621094 491.09375 444.460938 492.992188 445.367188 C 494.894531 446.269531 496.765625 447.234375 498.605469 448.257812 C 500.445312 449.277344 502.25 450.355469 504.023438 451.492188 C 505.796875 452.628906 507.53125 453.816406 509.226562 455.0625 C 510.925781 456.308594 512.582031 457.605469 514.199219 458.953125 C 515.8125 460.300781 517.386719 461.699219 518.914062 463.148438 C 520.441406 464.597656 521.921875 466.089844 523.355469 467.632812 C 524.789062 469.175781 526.171875 470.757812 527.507812 472.386719 C 528.839844 474.015625 530.121094 475.683594 531.351562 477.394531 C 532.578125 479.101562 533.753906 480.847656 534.871094 482.632812 C 535.601562 483.699219 536.253906 484.8125 536.832031 485.972656 C 539.046875 489.753906 541 493.667969 542.691406 497.710938 C 544.382812 501.753906 545.800781 505.890625 546.941406 510.121094 C 548.082031 514.355469 548.941406 518.640625 549.511719 522.988281 C 550.082031 527.332031 550.359375 531.699219 550.351562 536.082031 C 550.34375 540.285156 550.082031 544.472656 549.558594 548.640625 Z M 134.210938 349.496094 C 134.226562 347.863281 134.285156 346.230469 134.378906 344.601562 C 134.476562 342.972656 134.613281 341.34375 134.789062 339.722656 C 134.964844 338.097656 135.179688 336.480469 135.4375 334.867188 C 135.691406 333.253906 135.984375 331.648438 136.316406 330.046875 C 136.652344 328.449219 137.023438 326.859375 137.433594 325.28125 C 137.84375 323.699219 138.292969 322.128906 138.78125 320.570312 C 139.269531 319.011719 139.792969 317.464844 140.355469 315.933594 C 140.917969 314.402344 141.519531 312.882812 142.15625 311.378906 C 142.792969 309.875 143.464844 308.386719 144.175781 306.917969 C 144.882812 305.445312 145.628906 303.992188 146.410156 302.558594 C 147.1875 301.125 148.003906 299.710938 148.851562 298.3125 C 149.703125 296.917969 150.585938 295.546875 151.5 294.195312 C 152.417969 292.84375 153.363281 291.511719 154.347656 290.207031 C 155.328125 288.902344 156.339844 287.621094 157.382812 286.367188 C 158.425781 285.109375 159.5 283.878906 160.601562 282.675781 C 161.707031 281.472656 162.839844 280.296875 164 279.144531 C 165.160156 277.996094 166.347656 276.878906 167.5625 275.789062 C 168.777344 274.695312 170.019531 273.636719 171.285156 272.605469 C 172.554688 271.574219 173.84375 270.578125 175.160156 269.609375 C 176.476562 268.644531 177.816406 267.707031 179.175781 266.804688 C 180.539062 265.90625 181.921875 265.035156 183.324219 264.203125 C 184.726562 263.367188 186.152344 262.566406 187.59375 261.800781 C 189.035156 261.039062 190.496094 260.308594 191.976562 259.613281 C 193.453125 258.921875 194.949219 258.261719 196.457031 257.640625 C 197.96875 257.019531 199.492188 256.4375 201.03125 255.890625 C 202.570312 255.34375 204.121094 254.835938 205.6875 254.363281 C 207.25 253.894531 208.824219 253.460938 210.40625 253.066406 C 211.992188 252.671875 213.585938 252.316406 215.1875 252 C 216.789062 251.683594 218.398438 251.40625 220.015625 251.167969 C 221.628906 250.929688 223.25 250.730469 224.875 250.574219 C 226.5 250.414062 228.128906 250.292969 229.761719 250.214844 C 231.390625 250.136719 233.023438 250.09375 234.65625 250.09375 C 236.289062 250.09375 237.921875 250.136719 239.554688 250.214844 C 241.183594 250.292969 242.8125 250.414062 244.4375 250.574219 C 246.0625 250.730469 247.683594 250.929688 249.296875 251.167969 C 250.914062 251.40625 252.523438 251.683594 254.125 252 C 255.726562 252.316406 257.320312 252.671875 258.90625 253.066406 C 260.488281 253.460938 262.0625 253.894531 263.628906 254.363281 C 265.191406 254.835938 266.742188 255.34375 268.28125 255.890625 C 269.820312 256.4375 271.34375 257.019531 272.855469 257.640625 C 274.367188 258.261719 275.859375 258.921875 277.335938 259.613281 C 278.816406 260.308594 280.277344 261.039062 281.71875 261.800781 C 283.160156 262.566406 284.585938 263.367188 285.988281 264.203125 C 287.394531 265.035156 288.773438 265.90625 290.136719 266.804688 C 291.496094 267.707031 292.835938 268.644531 294.152344 269.609375 C 295.46875 270.578125 296.757812 271.574219 298.027344 272.605469 C 299.292969 273.636719 300.535156 274.695312 301.75 275.789062 C 302.964844 276.878906 304.152344 277.996094 305.3125 279.144531 C 306.476562 280.296875 307.605469 281.472656 308.710938 282.675781 C 309.8125 283.878906 310.886719 285.109375 311.929688 286.367188 C 312.972656 287.621094 313.984375 288.902344 314.96875 290.207031 C 315.949219 291.511719 316.898438 292.84375 317.8125 294.195312 C 318.730469 295.546875 319.613281 296.917969 320.460938 298.3125 C 321.308594 299.710938 322.125 301.125 322.90625 302.558594 C 323.683594 303.992188 324.429688 305.445312 325.140625 306.917969 C 325.847656 308.386719 326.519531 309.875 327.15625 311.378906 C 327.792969 312.882812 328.394531 314.402344 328.957031 315.933594 C 329.519531 317.46875 330.042969 319.011719 330.53125 320.570312 C 331.019531 322.128906 331.46875 323.699219 331.878906 325.28125 C 332.289062 326.859375 332.660156 328.449219 332.996094 330.046875 C 333.328125 331.648438 333.621094 333.253906 333.878906 334.867188 C 334.132812 336.480469 334.347656 338.097656 334.523438 339.722656 C 334.699219 341.34375 334.835938 342.972656 334.933594 344.601562 C 335.03125 346.230469 335.085938 347.863281 335.101562 349.496094 C 335.101562 353.730469 334.835938 357.945312 334.3125 362.144531 C 334.011719 364.46875 333.625 366.777344 333.164062 369.074219 C 332.699219 371.371094 332.15625 373.648438 331.53125 375.90625 C 330.910156 378.164062 330.210938 380.398438 329.433594 382.609375 C 328.652344 384.820312 327.800781 387 326.871094 389.148438 C 325.941406 391.300781 324.9375 393.414062 323.859375 395.496094 C 322.78125 397.574219 321.636719 399.617188 320.414062 401.617188 C 319.195312 403.617188 317.910156 405.574219 316.554688 407.484375 C 315.199219 409.394531 313.777344 411.253906 312.292969 413.066406 C 310.808594 414.878906 309.261719 416.636719 307.65625 418.34375 C 306.046875 420.046875 304.382812 421.691406 302.660156 423.28125 C 300.9375 424.867188 299.164062 426.394531 297.335938 427.859375 C 295.507812 429.324219 293.628906 430.722656 291.703125 432.058594 C 289.777344 433.390625 287.808594 434.65625 285.792969 435.855469 C 283.78125 437.050781 281.726562 438.175781 279.636719 439.230469 C 277.542969 440.285156 275.417969 441.265625 273.253906 442.171875 C 271.09375 443.074219 268.90625 443.90625 266.6875 444.660156 C 265.339844 445.105469 263.980469 445.570312 262 446.09375 C 258.46875 447.136719 254.886719 447.921875 251.242188 448.445312 C 250.449219 448.609375 249.644531 448.730469 248.835938 448.8125 L 245.5625 449.378906 C 244.941406 449.382812 244.320312 449.417969 243.703125 449.492188 C 242.847656 449.625 241.988281 449.691406 241.121094 449.691406 C 235.730469 450.007812 230.347656 449.910156 224.972656 449.390625 C 219.640625 448.878906 214.382812 447.945312 209.195312 446.597656 L 208.90625 446.496094 C 203.828125 445.167969 198.886719 443.449219 194.085938 441.328125 C 191.859375 440.359375 189.808594 438.992188 187.671875 437.84375 C 185.078125 436.453125 182.394531 435.25 179.875 433.625 C 176.375 431.363281 173.03125 428.890625 169.84375 426.210938 C 166.652344 423.527344 163.640625 420.660156 160.8125 417.601562 C 157.980469 414.546875 155.351562 411.324219 152.921875 407.9375 C 150.496094 404.550781 148.289062 401.027344 146.300781 397.367188 C 144.3125 393.703125 142.5625 389.929688 141.046875 386.050781 C 139.53125 382.167969 138.265625 378.207031 137.246094 374.167969 C 136.226562 370.128906 135.460938 366.039062 134.953125 361.90625 C 134.445312 357.769531 134.199219 353.617188 134.210938 349.453125 Z M 48.109375 636.5 C 48.101562 631.757812 48.273438 627.027344 48.625 622.296875 C 48.980469 617.570312 49.511719 612.863281 50.226562 608.179688 C 50.9375 603.492188 51.828125 598.839844 52.898438 594.222656 C 53.96875 589.601562 55.210938 585.03125 56.628906 580.507812 C 58.046875 575.984375 59.636719 571.523438 61.394531 567.121094 C 63.15625 562.71875 65.078125 558.390625 67.171875 554.136719 C 69.261719 549.882812 71.511719 545.714844 73.921875 541.632812 C 76.328125 537.546875 78.890625 533.5625 81.605469 529.675781 C 84.320312 525.789062 87.175781 522.011719 90.179688 518.34375 C 93.183594 514.675781 96.320312 511.128906 99.597656 507.703125 C 102.871094 504.273438 106.269531 500.976562 109.796875 497.808594 C 113.324219 494.640625 116.964844 491.609375 120.722656 488.722656 C 124.480469 485.832031 128.34375 483.089844 132.3125 480.496094 C 136.28125 477.902344 140.339844 475.464844 144.496094 473.179688 C 148.648438 470.898438 152.882812 468.777344 157.199219 466.816406 C 161.515625 464.855469 165.902344 463.0625 170.355469 461.441406 C 172.25 462.554688 174.285156 463.34375 176.246094 464.335938 C 178.472656 465.449219 180.621094 466.5625 182.871094 467.609375 C 186.210938 469.066406 189.550781 470.257812 192.972656 471.441406 C 195.199219 472.1875 197.292969 473.03125 199.519531 473.667969 C 203.339844 474.78125 207.246094 475.503906 211.15625 476.238281 C 213.070312 476.605469 214.929688 477.109375 216.867188 477.351562 C 222.777344 478.195312 228.714844 478.628906 234.683594 478.644531 C 237.402344 478.644531 240.140625 478.5 242 478.355469 C 243.535156 478.34375 245.066406 478.242188 246.589844 478.054688 C 248.152344 478.035156 249.699219 477.84375 251.21875 477.476562 L 252.679688 477.273438 C 254.339844 477.039062 256.019531 476.808594 256.519531 476.640625 C 260.941406 476.019531 265.292969 475.066406 269.570312 473.789062 C 271.664062 473.265625 273.757812 472.597656 275.941406 471.851562 C 280.652344 470.203125 285.265625 468.300781 289.769531 466.152344 C 291.152344 465.484375 292.453125 464.769531 293.800781 464.089844 C 295.460938 463.222656 297.199219 462.453125 298.8125 461.519531 C 299.769531 461.875 300.75 462.21875 301.695312 462.632812 C 305.945312 464.265625 310.117188 466.042969 314.214844 467.964844 C 315.550781 468.601562 316.917969 469.15625 318.210938 469.8125 C 323.433594 472.429688 328.542969 475.269531 333.488281 478.367188 L 334.203125 478.855469 C 333.488281 480.28125 332.964844 481.796875 332.320312 483.242188 C 331.441406 485.191406 330.570312 487.140625 329.804688 489.121094 C 328.601562 492.164062 327.574219 495.28125 326.605469 498.410156 C 326.003906 500.371094 325.359375 502.308594 324.859375 504.300781 C 323.980469 507.765625 323.332031 511.304688 322.753906 514.847656 C 322.464844 516.5625 322.0625 518.253906 321.851562 519.992188 C 321.148438 525.328125 320.777344 530.6875 320.738281 536.070312 C 320.757812 541.050781 321.070312 546.015625 321.675781 550.957031 C 321.839844 552.496094 322.128906 553.988281 322.351562 555.511719 C 322.867188 558.921875 323.46875 562.292969 324.269531 565.613281 C 324.660156 567.273438 325.070312 568.953125 325.527344 570.566406 C 326.429688 573.910156 327.496094 577.082031 328.65625 580.277344 C 329.167969 581.691406 329.625 583.128906 330.191406 584.519531 C 331.980469 588.992188 334.007812 593.351562 336.273438 597.605469 C 336.40625 597.828125 336.550781 598.039062 336.671875 598.261719 C 338.886719 602.246094 341.304688 606.109375 343.921875 609.84375 C 344.859375 611.167969 345.859375 612.425781 346.839844 613.71875 C 348.800781 616.3125 350.859375 618.851562 353.019531 621.3125 C 354.210938 622.660156 355.4375 623.984375 356.683594 625.285156 C 357.519531 626.144531 358.253906 627.089844 359.121094 627.9375 C 358.988281 627.9375 358.878906 628.058594 358.753906 628.117188 C 357.875 628.527344 357.050781 629.050781 356.171875 629.484375 C 349.816406 632.558594 343.640625 635.898438 337.640625 639.507812 C 335.414062 640.898438 333.1875 642.4375 330.960938 643.960938 C 326.507812 646.921875 322.121094 649.984375 317.898438 653.257812 C 315.570312 655.074219 313.324219 656.933594 311.0625 658.828125 C 307.109375 662.167969 303.265625 665.675781 299.570312 669.28125 C 297.53125 671.265625 295.496094 673.214844 293.535156 675.285156 C 289.546875 679.503906 285.796875 683.925781 282.15625 688.4375 C 280.796875 690.117188 279.347656 691.675781 278.066406 693.390625 C 273.261719 699.722656 268.828125 706.304688 264.761719 713.132812 C 263.925781 714.527344 263.269531 716.019531 262.457031 717.421875 C 259.328125 722.988281 256.386719 728.625 253.75 734.46875 C 252.632812 736.996094 251.621094 739.59375 250.574219 742.164062 C 249.339844 745.226562 247.925781 748.175781 246.8125 751.304688 L 48.109375 751.304688 Z M 636.460938 851.746094 L 263.324219 851.746094 L 263.324219 823.039062 C 263.289062 810.257812 264.570312 797.609375 267.167969 785.097656 C 269.765625 772.582031 273.621094 760.46875 278.734375 748.753906 C 279.738281 746.429688 281.03125 744.300781 282.132812 741.996094 C 284.257812 737.621094 286.320312 733.210938 288.8125 729.035156 C 290.304688 726.460938 292.085938 724.101562 293.691406 721.617188 C 296.074219 717.957031 298.378906 714.234375 301.007812 710.75 C 302.898438 708.246094 305.039062 705.941406 307.042969 703.546875 C 309.714844 700.351562 312.320312 697.097656 315.203125 694.082031 C 317.429688 691.765625 319.882812 689.625 322.242188 687.398438 C 325.203125 684.617188 328.109375 681.777344 331.25 679.191406 C 333.789062 677.097656 336.519531 675.21875 339.167969 673.269531 C 342.398438 670.886719 345.582031 668.457031 348.96875 666.296875 C 351.796875 664.472656 354.78125 662.890625 357.707031 661.21875 C 361.171875 659.261719 364.613281 657.265625 368.210938 655.519531 C 371.304688 654.027344 374.5 652.746094 377.675781 651.410156 C 380.402344 650.296875 383.152344 649.183594 385.957031 648.136719 C 387.074219 648.804688 388.296875 649.316406 389.457031 649.929688 C 391.058594 650.785156 392.683594 651.644531 394.320312 652.421875 C 396.871094 653.660156 399.464844 654.75 402.117188 655.761719 C 403.742188 656.410156 405.34375 657.101562 406.980469 657.679688 C 409.867188 658.703125 412.804688 659.539062 415.769531 660.351562 C 417.195312 660.742188 418.585938 661.21875 420.023438 661.542969 C 424.433594 662.589844 428.886719 663.398438 433.382812 663.96875 C 438.871094 664.761719 444.386719 665.132812 449.933594 665.085938 C 455.328125 665.121094 460.695312 664.75 466.035156 663.96875 C 470.621094 663.402344 475.164062 662.585938 479.664062 661.519531 C 481.132812 661.175781 482.558594 660.707031 484.015625 660.296875 C 486.980469 659.492188 489.917969 658.660156 492.804688 657.644531 C 494.496094 657.042969 496.144531 656.34375 497.824219 655.6875 C 500.398438 654.648438 502.945312 653.59375 505.453125 652.34375 C 507.144531 651.53125 508.792969 650.652344 510.484375 649.761719 C 511.597656 649.160156 512.800781 648.648438 513.914062 647.992188 C 516.6875 649.015625 519.425781 650.105469 522.132812 651.230469 C 525.328125 652.578125 528.582031 653.859375 531.675781 655.386719 C 535.25 657.109375 538.667969 659.105469 542.097656 661.054688 C 545.0625 662.722656 548.066406 664.394531 550.90625 666.175781 C 554.246094 668.324219 557.421875 670.742188 560.617188 673.089844 C 563.300781 675.074219 566.0625 676.964844 568.636719 679.082031 C 571.742188 681.652344 574.625 684.472656 577.542969 687.230469 C 579.925781 689.460938 582.386719 691.597656 584.648438 693.914062 C 587.507812 696.898438 590.09375 700.105469 592.742188 703.277344 C 594.78125 705.71875 596.953125 708.042969 598.855469 710.5625 C 601.441406 713.992188 603.722656 717.65625 606.070312 721.273438 C 607.71875 723.800781 609.535156 726.230469 611.050781 728.84375 C 613.433594 732.921875 615.4375 737.242188 617.519531 741.515625 C 618.632812 743.890625 620.015625 746.148438 621.070312 748.578125 C 623.882812 755.085938 626.316406 761.726562 628.375 768.511719 C 628.488281 768.867188 628.65625 769.199219 628.765625 769.554688 C 633.917969 786.945312 636.484375 804.703125 636.460938 822.839844 Z M 851.707031 751.292969 L 652.898438 751.292969 C 651.78125 748.15625 650.367188 745.179688 649.121094 742.117188 C 648.085938 739.570312 647.105469 736.984375 645.980469 734.480469 C 643.332031 728.613281 640.414062 722.910156 637.230469 717.355469 C 636.449219 715.960938 635.792969 714.492188 635.003906 713.132812 C 630.914062 706.296875 626.457031 699.703125 621.640625 693.355469 C 620.371094 691.664062 618.933594 690.09375 617.597656 688.445312 C 613.945312 683.902344 610.191406 679.472656 606.183594 675.238281 C 604.234375 673.179688 602.195312 671.242188 600.160156 669.261719 C 596.441406 665.628906 592.632812 662.144531 588.65625 658.78125 C 586.429688 656.886719 584.203125 655.027344 581.820312 653.214844 C 577.597656 649.941406 573.222656 646.867188 568.757812 643.914062 C 566.53125 642.445312 564.382812 640.910156 562.078125 639.460938 C 556.09375 635.800781 549.917969 632.460938 543.546875 629.441406 C 542.679688 629.003906 541.855469 628.492188 540.964844 628.082031 C 540.839844 628.082031 540.71875 627.960938 540.597656 627.890625 C 541.488281 627.023438 542.265625 626.042969 543.136719 625.140625 C 544.316406 623.917969 545.453125 622.667969 546.574219 621.410156 C 548.804688 618.863281 550.964844 616.210938 553 613.515625 C 553.914062 612.3125 554.859375 611.132812 555.71875 609.886719 C 558.445312 606.035156 560.945312 602.046875 563.222656 597.914062 C 563.222656 597.816406 563.347656 597.714844 563.414062 597.613281 C 565.703125 593.347656 567.746094 588.964844 569.539062 584.464844 C 570.082031 583.09375 570.539062 581.691406 571.039062 580.3125 C 572.222656 577.105469 573.265625 573.839844 574.203125 570.511719 C 574.648438 568.886719 575.058594 567.25 575.449219 565.613281 C 576.230469 562.269531 576.851562 558.929688 577.375 555.480469 C 577.597656 553.964844 577.886719 552.472656 578.066406 550.933594 C 578.652344 545.988281 578.957031 541.019531 578.980469 536.035156 C 578.949219 530.636719 578.578125 525.261719 577.867188 519.914062 C 577.65625 518.152344 577.253906 516.472656 576.964844 514.734375 C 576.375 511.183594 575.761719 507.675781 574.882812 504.234375 C 574.382812 502.242188 573.769531 500.3125 573.132812 498.355469 C 572.1875 495.269531 571.207031 492.230469 570.050781 489.257812 C 569.269531 487.261719 568.402344 485.335938 567.523438 483.421875 C 566.832031 481.894531 566.273438 480.292969 565.527344 478.8125 L 566.183594 478.367188 C 571.140625 475.257812 576.207031 472.410156 581.496094 469.78125 C 582.820312 469.125 584.191406 468.542969 585.539062 467.898438 C 589.628906 465.976562 593.785156 464.203125 598.011719 462.578125 C 598.980469 462.199219 599.9375 461.863281 600.917969 461.460938 C 602.542969 462.398438 604.257812 463.1875 605.960938 464.046875 C 607.285156 464.726562 608.589844 465.4375 609.949219 466.082031 C 614.492188 468.25 619.136719 470.160156 623.890625 471.820312 C 625.972656 472.519531 628.066406 473.1875 629.535156 473.542969 C 633.625 474.804688 637.789062 475.742188 642.027344 476.351562 C 643.753906 476.75 645.371094 476.984375 647.050781 477.21875 L 647.207031 477.164062 C 649.148438 477.648438 651.121094 477.925781 653.121094 478 C 654.363281 478.179688 655.613281 478.277344 656.871094 478.289062 C 659.566406 478.476562 662.296875 478.609375 665.023438 478.609375 C 667.128906 478.609375 669.199219 478.253906 671.304688 478.15625 C 673.941406 478.019531 676.570312 477.863281 679.175781 477.574219 C 682.730469 477.1875 686.191406 476.59375 689.675781 475.925781 C 692.371094 475.414062 695.042969 474.8125 697.695312 474.167969 C 700.96875 473.300781 704.1875 472.253906 707.371094 471.140625 C 710.109375 470.179688 712.828125 469.203125 715.488281 468.054688 C 718.472656 466.773438 721.378906 465.316406 724.261719 463.800781 C 725.910156 462.945312 727.660156 462.308594 729.285156 461.382812 C 733.742188 463.007812 738.125 464.800781 742.445312 466.757812 C 746.761719 468.71875 751 470.839844 755.152344 473.121094 C 759.308594 475.40625 763.371094 477.84375 767.339844 480.4375 C 771.308594 483.03125 775.171875 485.773438 778.933594 488.664062 C 782.691406 491.554688 786.335938 494.582031 789.863281 497.75 C 793.390625 500.917969 796.789062 504.214844 800.066406 507.644531 C 803.339844 511.074219 806.480469 514.621094 809.484375 518.289062 C 812.488281 521.957031 815.347656 525.734375 818.0625 529.625 C 820.777344 533.511719 823.339844 537.496094 825.75 541.578125 C 828.160156 545.660156 830.410156 549.832031 832.5 554.085938 C 834.59375 558.34375 836.519531 562.671875 838.277344 567.074219 C 840.039062 571.476562 841.628906 575.9375 843.046875 580.464844 C 844.464844 584.988281 845.707031 589.558594 846.777344 594.179688 C 847.84375 598.796875 848.738281 603.453125 849.449219 608.140625 C 850.164062 612.828125 850.695312 617.535156 851.046875 622.261719 C 851.402344 626.992188 851.574219 631.726562 851.5625 636.464844 Z M 851.707031 751.292969 " fill-opacity="1" fill-rule="nonzero"/></g></svg>