<svg id="Group_125" data-name="Group 125" xmlns="http://www.w3.org/2000/svg" width="24.818" height="20.442" viewBox="0 0 24.818 20.442">
  <path id="Path_226" data-name="Path 226" d="M460.324,282.162a10.206,10.206,0,0,1-2.507.716c.4-.068,1-.8,1.237-1.095a4.615,4.615,0,0,0,.834-1.52c.022-.044.038-.1-.005-.131a.142.142,0,0,0-.133.011,12.817,12.817,0,0,1-2.978,1.139.2.2,0,0,1-.205-.054,2.384,2.384,0,0,0-.26-.266,5.264,5.264,0,0,0-1.442-.884,5.019,5.019,0,0,0-2.212-.357,5.285,5.285,0,0,0-2.1.593,5.4,5.4,0,0,0-1.694,1.383,5.206,5.206,0,0,0-1.011,2.025,5.492,5.492,0,0,0-.053,2.139c.016.12.006.136-.1.12a15.9,15.9,0,0,1-10.232-5.209c-.12-.136-.184-.136-.282.011a5.188,5.188,0,0,0,.885,6.13c.2.19.406.38.628.554a5.218,5.218,0,0,1-1.974-.554c-.12-.075-.179-.032-.19.1a3.137,3.137,0,0,0,.032.586,5.248,5.248,0,0,0,3.234,4.183,3.047,3.047,0,0,0,.656.2,5.848,5.848,0,0,1-1.937.06c-.141-.027-.195.043-.141.179a5.447,5.447,0,0,0,4.069,3.407c.184.032.369.032.554.076-.011.017-.022.017-.033.033-.457.7-2.041,1.215-2.779,1.473a9.957,9.957,0,0,1-4.22.54c-.227-.034-.274-.031-.336,0s-.008.092.065.152c.288.19.581.358.879.521a13.953,13.953,0,0,0,2.821,1.128,15.025,15.025,0,0,0,14.587-3.411c2.99-2.97,4.037-7.066,4.037-11.167,0-.16.19-.249.3-.334a9.829,9.829,0,0,0,1.976-2.065.6.6,0,0,0,.123-.4v-.022C460.417,282.1,460.425,282.115,460.324,282.162Z" transform="translate(-435.599 -279.711)" fill="#fff"/>
  <path id="Path_227" data-name="Path 227" d="M450.27,320.227Z" transform="translate(-442.899 -299.873)" fill="#fff" fill-rule="evenodd"/>
  <path id="Path_228" data-name="Path 228" d="M450.082,320.227c-.033,0-.409,0,0,0Z" transform="translate(-442.712 -299.873)" fill="#fff" fill-rule="evenodd"/>
  <path id="Path_229" data-name="Path 229" d="M451.933,320.252c0-.042.44,0,0,0C451.933,320.23,451.987,320.252,451.933,320.252Z" transform="translate(-443.727 -299.876)" fill="#fff" fill-rule="evenodd"/>
  <path id="Path_230" data-name="Path 230" d="M469.3,279.771a.088.088,0,0,1-.1,0Z" transform="translate(-452.321 -279.741)" fill="#fff" fill-rule="evenodd"/>
</svg>
