<svg xmlns="http://www.w3.org/2000/svg" width="60" height="37" viewBox="0 0 60 37">
  <rect id="Rectangle_78" data-name="Rectangle 78" width="60" height="37" rx="4" fill="#fff"/>
  <g id="Group_131" data-name="Group 131" transform="translate(14.078 13.302)">
    <path id="Path_240" data-name="Path 240" d="M11.816,1.46,7.741,11.18H5.083L3.078,3.423a1.066,1.066,0,0,0-.6-.854A10.523,10.523,0,0,0,0,1.742L.059,1.46h4.28a1.173,1.173,0,0,1,1.16.991l1.06,5.625L9.174,1.46Z" transform="translate(0 -1.283)" fill="#1a1f71"/>
    <path id="Path_241" data-name="Path 241" d="M93.561,1.46l-2.079,9.72H88.966l2.079-9.72Z" transform="translate(-78.151 -1.282)" fill="#1a1f71"/>
    <path id="Path_242" data-name="Path 242" d="M131.026,6.724c.01-2.565-3.547-2.707-3.523-3.853.009-.348.34-.719,1.067-.814a4.748,4.748,0,0,1,2.48.435L131.49.429A6.782,6.782,0,0,0,129.138,0c-2.486,0-4.235,1.32-4.249,3.213-.016,1.4,1.249,2.18,2.2,2.646.98.476,1.309.782,1.3,1.208-.007.652-.783.941-1.5.952a5.255,5.255,0,0,1-2.583-.614l-.456,2.131a7.633,7.633,0,0,0,2.8.516c2.643,0,4.371-1.305,4.379-3.326Z" transform="translate(-108.795)" fill="#1a1f71"/>
    <path id="Path_243" data-name="Path 243" d="M188.784,1.46h-2.145a1.144,1.144,0,0,0-1.071.713l-3.773,9.008h2.641l.524-1.452h3.226l.3,1.452h2.325Zm-3.1,6.276,1.324-3.65.761,3.65Z" transform="translate(-159.694 -1.283)" fill="#1a1f71"/>
  </g>
</svg>
